SplineFontDB: 3.0
FontName: Bodoni-72-Bold
FullName: Bodoni* 72 Bold
FamilyName: Bodoni* 72
Weight: Bold
Copyright: Copyright (c) 2017, Owen Earl,,, (EwonRael@yahoo.com)
Version: 001.2
ItalicAngle: 0
UnderlinePosition: -800
UnderlineWidth: 400
Ascent: 6400
Descent: 1600
InvalidEm: 0
LayerCount: 2
Layer: 0 0 "Back" 1
Layer: 1 0 "Fore" 0
PreferredKerning: 4
XUID: [1021 31 -699969567 16487490]
FSType: 0
OS2Version: 0
OS2_WeightWidthSlopeOnly: 0
OS2_UseTypoMetrics: 1
CreationTime: 1460762150
ModificationTime: 1548990627
PfmFamily: 17
TTFWeight: 700
TTFWidth: 5
LineGap: 800
VLineGap: 0
OS2TypoAscent: 6400
OS2TypoAOffset: 0
OS2TypoDescent: -1600
OS2TypoDOffset: 0
OS2TypoLinegap: 800
OS2WinAscent: 8000
OS2WinAOffset: 0
OS2WinDescent: 3200
OS2WinDOffset: 0
HheadAscent: 8000
HheadAOffset: 0
HheadDescent: -1600
HheadDOffset: 0
OS2CapHeight: 700
OS2XHeight: 460
OS2FamilyClass: 768
OS2Vendor: 'PfEd'
OS2UnicodeRanges: 00000001.00000000.00000000.00000000
Lookup: 1 0 0 "'ss02' Style Set 2 lookup 4" { "'ss02' Style Set 2 lookup 4-1"  } ['ss02' ('DFLT' <'dflt' > 'grek' <'dflt' > 'latn' <'dflt' > ) ]
Lookup: 1 0 0 "'ss03' Style Set 3 lookup 5" { "'ss03' Style Set 3 lookup 5-1"  } ['ss03' ('DFLT' <'dflt' > 'grek' <'dflt' > 'latn' <'dflt' > ) ]
Lookup: 1 0 0 "'ss01' Style Set 1 lookup 2" { "'ss01' Style Set 1 lookup 2-1"  } ['ss01' ('DFLT' <'dflt' > 'grek' <'dflt' > 'latn' <'dflt' > ) ]
Lookup: 5 0 0 "'calt' Contextual Alternates lookup 3" { "'calt' Contextual Alternates lookup 3-1"  } ['calt' ('DFLT' <'dflt' > 'grek' <'dflt' > 'latn' <'dflt' > ) ]
Lookup: 4 0 1 "'liga' Standard Ligatures lookup 0" { "'liga' Standard Ligatures lookup 0-1"  } ['liga' ('DFLT' <'dflt' > 'grek' <'dflt' > 'latn' <'dflt' > ) ]
Lookup: 258 0 0 "'kern' Horizontal Kerning lookup 0" { "kerning like they all do" [150,0,6] } ['kern' ('DFLT' <'dflt' > 'grek' <'dflt' > 'latn' <'dflt' > ) ]
MarkAttachClasses: 1
DEI: 91125
KernClass2: 31 27 "kerning like they all do"

StartChar: ampersand
Encoding: 38 38 0
GlifName: ampersand
Width: 6888
Flags: HMW
LayerCount: 2
Fore
SplineSet
4672 3680 m 1
 6592 3680 l 1
 6592 3656 l 1
 4672 3656 l 1
 4672 3680 l 1
5752 3680 m 1
 5592 1896 4416 -80 2272 -80 c 0
 1008 -80 320 536 320 1440 c 0
 320 2704 1992 3024 2688 3456 c 0
 3296 3856 3728 3848 3728 5080 c 0
 3728 5536 3616 6056 3168 6056 c 0
 2736 6056 2568 5624 2568 5240 c 0
 2568 4920 2808 4432 3152 3920 c 2
 5696 24 l 1
 6672 24 l 1
 6672 0 l 1
 4320 0 l 1
 1672 3920 l 2
 1464 4224 1304 4624 1304 4904 c 0
 1304 5624 2064 6080 3192 6080 c 0
 4248 6080 4920 5688 4920 5088 c 0
 4920 4112 3760 4144 2672 3424 c 0
 2080 3056 1640 2952 1640 1840 c 0
 1640 944 2200 144 2952 144 c 0
 4344 144 5568 1864 5728 3680 c 1
 5752 3680 l 1
EndSplineSet
EndChar

StartChar: period
Encoding: 46 46 1
GlifName: period
Width: 2080
Flags: HMW
LayerCount: 2
Fore
SplineSet
320 640 m 0
 320 1040 640 1360 1040 1360 c 0
 1440 1360 1760 1040 1760 640 c 0
 1760 240 1440 -80 1040 -80 c 0
 640 -80 320 240 320 640 c 0
EndSplineSet
EndChar

StartChar: zero
Encoding: 48 48 2
GlifName: zero
Width: 5280
Flags: HMW
LayerCount: 2
Fore
SplineSet
2640 -80 m 0
 1256 -80 320 1256 320 3000 c 0
 320 4744 1336 6080 2640 6080 c 0
 3944 6080 4960 4744 4960 3000 c 0
 4960 1256 4024 -80 2640 -80 c 0
2640 6056 m 0
 1888 6056 1720 4656 1720 3000 c 0
 1720 1344 1808 -56 2640 -56 c 0
 3472 -56 3560 1344 3560 3000 c 0
 3560 4656 3432 6056 2640 6056 c 0
EndSplineSet
EndChar

StartChar: one
Encoding: 49 49 3
GlifName: one
Width: 3960
VWidth: 9240
Flags: HMW
LayerCount: 2
Fore
SplineSet
400 24 m 1
 3560 24 l 1
 3560 0 l 1
 400 0 l 1
 400 24 l 1
536 6000 m 1
 2680 6000 l 1
 2680 8 l 1
 1440 8 l 1
 1440 5976 l 1
 536 5976 l 1
 536 6000 l 1
EndSplineSet
EndChar

StartChar: two
Encoding: 50 50 4
GlifName: two
Width: 4800
VWidth: 9240
Flags: HMW
LayerCount: 2
Fore
SplineSet
4520 0 m 1
 320 0 l 1
 320 800 l 1
 2032 2176 l 2
 2736 2752 3072 3368 3072 4240 c 0
 3072 5232 2688 5952 1944 5952 c 0
 1096 5952 400 5240 432 4352 c 1
 528 4656 784 4896 1152 4896 c 0
 1584 4896 1904 4608 1904 4208 c 0
 1904 3768 1520 3472 1120 3472 c 0
 720 3472 400 3776 400 4392 c 0
 400 5328 1144 6080 2400 6080 c 0
 3648 6080 4352 5400 4352 4560 c 0
 4352 3640 3408 3200 2816 2752 c 2
 944 1200 l 1
 4496 1200 l 1
 4496 1800 l 1
 4520 1800 l 1
 4520 0 l 1
EndSplineSet
EndChar

StartChar: three
Encoding: 51 51 5
GlifName: three
Width: 4568
VWidth: 9240
Flags: HMW
LayerCount: 2
Fore
SplineSet
4248 1640 m 0
 4248 560 3256 -80 2048 -80 c 0
 792 -80 200 632 200 1288 c 0
 200 1736 496 2032 896 2032 c 0
 1256 2032 1536 1768 1536 1360 c 0
 1536 984 1208 720 856 720 c 0
 568 720 384 848 272 1048 c 1
 352 544 912 -16 1888 -16 c 0
 2760 -16 2960 768 2960 1640 c 0
 2960 2352 2736 3232 1584 3232 c 1
 1584 3248 l 1
 3592 3248 4248 2560 4248 1640 c 0
1584 3232 m 1
 1584 3248 l 1
 2656 3248 2720 4176 2720 4728 c 0
 2720 5360 2520 6024 1968 6024 c 0
 1368 6024 720 5640 560 5176 c 1
 704 5384 928 5472 1136 5472 c 0
 1448 5472 1752 5232 1752 4848 c 0
 1752 4432 1416 4184 1096 4184 c 0
 736 4184 440 4408 440 4840 c 0
 440 5536 1272 6072 2088 6072 c 0
 3136 6072 4008 5568 4008 4688 c 0
 4008 3888 3512 3232 1584 3232 c 1
EndSplineSet
EndChar

StartChar: four
Encoding: 52 52 6
GlifName: four
Width: 5120
VWidth: 9240
Flags: HMW
LayerCount: 2
Fore
SplineSet
4760 24 m 1
 4760 0 l 1
 2160 0 l 1
 2160 24 l 1
 2920 24 l 1
 2920 5504 l 1
 320 1728 l 1
 5040 1728 l 1
 5040 1712 l 1
 280 1712 l 1
 3240 6000 l 1
 4160 6000 l 1
 4160 24 l 1
 4760 24 l 1
EndSplineSet
Substitution2: "'ss03' Style Set 3 lookup 5-1" four.alt
EndChar

StartChar: five
Encoding: 53 53 7
GlifName: five
Width: 4280
VWidth: 9240
Flags: HMW
LayerCount: 2
Fore
SplineSet
3760 4800 m 1
 480 4800 l 1
 480 2856 l 1
 456 2856 l 1
 456 6000 l 1
 3736 6000 l 1
 3736 6440 l 1
 3760 6440 l 1
 3760 4800 l 1
168 816 m 1
 296 360 904 -32 1568 -32 c 0
 2440 -32 2720 864 2720 1776 c 0
 2720 2848 2432 3568 1760 3568 c 0
 1152 3568 648 3208 488 2856 c 1
 464 2856 l 1
 632 3232 1168 3640 2016 3640 c 0
 3224 3640 4040 2976 4040 1776 c 0
 4040 696 3056 -80 1728 -80 c 0
 872 -80 80 376 80 1112 c 0
 80 1560 392 1848 776 1848 c 0
 1136 1848 1472 1624 1472 1184 c 0
 1472 784 1128 480 736 480 c 0
 480 480 264 640 168 816 c 1
EndSplineSet
EndChar

StartChar: six
Encoding: 54 54 8
GlifName: six
Width: 4880
VWidth: 9240
Flags: HMW
LayerCount: 2
Fore
SplineSet
3320 2000 m 0
 3320 3272 3040 3840 2528 3840 c 0
 1912 3840 1720 3280 1720 2240 c 1
 1696 2240 l 1
 1696 3296 1840 3936 2768 3936 c 0
 3656 3936 4640 3360 4640 2000 c 0
 4640 800 3840 -80 2552 -80 c 0
 1264 -80 400 800 400 2480 c 0
 400 4424 1936 6080 4040 6080 c 1
 4040 6056 l 1
 2608 6056 1720 4432 1720 2672 c 1
 1720 2240 l 1
 1720 968 1944 -56 2576 -56 c 0
 3208 -56 3320 888 3320 2000 c 0
EndSplineSet
EndChar

StartChar: seven
Encoding: 55 55 9
GlifName: seven
Width: 4320
VWidth: 9240
Flags: HMW
LayerCount: 2
Fore
SplineSet
1184 728 m 0
 1184 1360 1984 2112 2512 2984 c 0
 2784 3448 3112 4064 3496 4760 c 1
 344 4760 l 1
 344 4160 l 1
 320 4160 l 1
 320 6000 l 1
 4240 6000 l 1
 4240 6000 3200 4072 2576 3016 c 0
 2176 2336 2024 2168 2024 1896 c 0
 2024 1392 2704 1272 2704 664 c 0
 2704 248 2424 -80 1952 -80 c 0
 1520 -80 1184 176 1184 728 c 0
EndSplineSet
EndChar

StartChar: eight
Encoding: 56 56 10
GlifName: eight
Width: 4800
VWidth: 9240
Flags: HMW
LayerCount: 2
Fore
SplineSet
1760 4480 m 0
 1760 3608 1928 3128 2400 3128 c 0
 2872 3128 3040 3608 3040 4480 c 0
 3040 5312 2872 5984 2400 5984 c 0
 1928 5984 1760 5312 1760 4480 c 0
480 4480 m 0
 480 5360 1152 6080 2400 6080 c 0
 3648 6080 4320 5360 4320 4480 c 0
 4320 3600 3648 3056 2400 3056 c 0
 1152 3056 480 3600 480 4480 c 0
1600 1520 m 0
 1600 688 1808 16 2400 16 c 0
 2992 16 3200 688 3200 1520 c 0
 3200 2352 2992 3040 2400 3040 c 0
 1808 3040 1600 2352 1600 1520 c 0
320 1520 m 0
 320 2480 992 3104 2400 3104 c 0
 3808 3104 4480 2480 4480 1520 c 0
 4480 560 3808 -80 2400 -80 c 0
 992 -80 320 560 320 1520 c 0
EndSplineSet
EndChar

StartChar: A
Encoding: 65 65 12
GlifName: A_
Width: 6256
Flags: HMW
LayerCount: 2
Fore
SplineSet
144 24 m 1
 1904 24 l 1
 1904 0 l 1
 144 0 l 1
 144 24 l 1
3424 24 m 1
 6144 24 l 1
 6144 0 l 1
 3424 0 l 1
 3424 24 l 1
1592 1968 m 1
 4144 1968 l 1
 4144 1952 l 1
 1592 1952 l 1
 1592 1968 l 1
2608 4768 m 1
 928 0 l 1
 896 0 l 1
 3056 6120 l 1
 3456 6120 l 1
 5584 0 l 1
 4144 0 l 1
 2608 4768 l 1
EndSplineSet
EndChar

StartChar: B
Encoding: 66 66 13
GlifName: B_
Width: 5576
Flags: HMW
LayerCount: 2
Fore
SplineSet
2864 3072 m 2
 1904 3072 l 1
 1904 3088 l 1
 2704 3088 l 2
 3272 3088 3744 3488 3744 4440 c 0
 3744 5392 3272 5976 2704 5976 c 2
 144 5976 l 1
 144 6000 l 1
 2864 6000 l 2
 4192 6000 5024 5560 5024 4520 c 0
 5024 3520 4272 3072 2864 3072 c 2
864 6000 m 1
 2096 6000 l 1
 2096 0 l 1
 864 0 l 1
 864 6000 l 1
3024 0 m 2
 144 0 l 1
 144 24 l 1
 2784 24 l 2
 3432 24 3904 728 3904 1680 c 0
 3904 2632 3432 3072 2784 3072 c 2
 1904 3072 l 1
 1904 3088 l 1
 3024 3088 l 2
 4272 3088 5264 2720 5264 1600 c 0
 5264 440 4432 0 3024 0 c 2
EndSplineSet
EndChar

StartChar: C
Encoding: 67 67 14
GlifName: C_
Width: 5616
Flags: HMW
LayerCount: 2
Fore
SplineSet
5200 6000 m 1
 5216 6000 l 1
 5216 4240 l 1
 5072 4752 4808 5232 4456 5584 c 1
 5200 6000 l 1
5216 4240 m 1
 5184 4240 l 1
 4912 5280 4208 6032 3296 6032 c 0
 2104 6032 1744 4456 1744 3000 c 0
 1744 1544 2104 -32 3296 -32 c 0
 4384 -32 5048 784 5272 1760 c 1
 5296 1760 l 1
 5056 696 4360 -80 3216 -80 c 0
 1432 -80 336 1216 336 3000 c 0
 336 4784 1432 6080 3216 6080 c 0
 4240 6080 4936 5304 5216 4240 c 1
5296 1760 m 1
 5296 0 l 1
 5280 0 l 1
 4600 464 l 1
 4952 816 5168 1264 5296 1760 c 1
EndSplineSet
EndChar

StartChar: D
Encoding: 68 68 15
GlifName: D_
Width: 6056
Flags: HMW
LayerCount: 2
Fore
SplineSet
864 6000 m 1
 2096 6000 l 1
 2096 0 l 1
 864 0 l 1
 864 6000 l 1
2704 0 m 2
 144 0 l 1
 144 24 l 1
 2704 24 l 2
 3936 24 4336 1424 4336 3000 c 0
 4336 4576 3856 5976 2704 5976 c 2
 144 5976 l 1
 144 6000 l 1
 2704 6000 l 2
 4608 6000 5744 4784 5744 3000 c 0
 5744 1216 4528 0 2704 0 c 2
EndSplineSet
EndChar

StartChar: E
Encoding: 69 69 16
GlifName: E_
Width: 5016
Flags: HMW
LayerCount: 2
Fore
SplineSet
4752 1800 m 1
 4784 1800 l 1
 4784 0 l 1
 144 0 l 1
 144 24 l 1
 2944 24 l 2
 4040 24 4632 784 4752 1800 c 1
864 6000 m 1
 2096 6000 l 1
 2096 0 l 1
 864 0 l 1
 864 6000 l 1
144 6000 m 1
 4704 6000 l 1
 4704 4360 l 1
 4672 4360 l 1
 4552 5216 3960 5976 3024 5976 c 2
 144 5976 l 1
 144 6000 l 1
3440 2104 m 1
 3320 2640 2840 3096 2384 3096 c 2
 1824 3096 l 1
 1824 3112 l 1
 2384 3112 l 2
 2840 3112 3320 3528 3440 4064 c 1
 3456 4064 l 1
 3456 2104 l 1
 3440 2104 l 1
EndSplineSet
EndChar

StartChar: F
Encoding: 70 70 17
GlifName: F_
Width: 4816
Flags: HMW
LayerCount: 2
Fore
SplineSet
144 6000 m 1
 4576 6000 l 1
 4576 4360 l 1
 4560 4360 l 1
 4440 5216 3920 5976 3024 5976 c 2
 144 5976 l 1
 144 6000 l 1
144 24 m 1
 2896 24 l 1
 2896 0 l 1
 144 0 l 1
 144 24 l 1
864 6000 m 1
 2096 6000 l 1
 2096 0 l 1
 864 0 l 1
 864 6000 l 1
3440 1984 m 1
 3320 2520 2920 2976 2304 2976 c 2
 1776 2976 l 1
 1776 2992 l 1
 2304 2992 l 2
 2920 2992 3320 3408 3440 3944 c 1
 3456 3944 l 1
 3456 1984 l 1
 3440 1984 l 1
EndSplineSet
EndChar

StartChar: G
Encoding: 71 71 18
GlifName: G_
Width: 6056
Flags: HMW
LayerCount: 2
Fore
SplineSet
5376 4240 m 1
 5184 4912 4848 5344 4528 5616 c 1
 5360 6000 l 1
 5376 6000 l 1
 5376 4240 l 1
3424 2288 m 1
 5984 2288 l 1
 5984 2272 l 1
 3424 2272 l 1
 3424 2288 l 1
4256 2280 m 1
 5584 2280 l 1
 5584 1240 l 1
 5064 696 4488 -80 3184 -80 c 0
 1400 -80 336 1136 336 3000 c 0
 336 4864 1672 6080 3296 6080 c 0
 4320 6080 5184 5224 5376 4240 c 1
 5360 4240 l 1
 5200 5104 4368 6032 3400 6032 c 0
 2208 6032 1744 4456 1744 3000 c 0
 1744 1544 2032 -56 3184 -56 c 0
 3856 -56 4136 664 4256 1000 c 1
 4256 2280 l 1
EndSplineSet
EndChar

StartChar: H
Encoding: 72 72 19
GlifName: H_
Width: 6336
Flags: HMW
LayerCount: 2
Fore
SplineSet
1936 2968 m 1
 4416 2968 l 1
 4416 2952 l 1
 1936 2952 l 1
 1936 2968 l 1
3536 24 m 1
 6224 24 l 1
 6224 0 l 1
 3536 0 l 1
 3536 24 l 1
144 24 m 1
 2816 24 l 1
 2816 0 l 1
 144 0 l 1
 144 24 l 1
3536 6000 m 1
 6224 6000 l 1
 6224 5976 l 1
 3536 5976 l 1
 3536 6000 l 1
144 6000 m 1
 2816 6000 l 1
 2816 5976 l 1
 144 5976 l 1
 144 6000 l 1
4256 6000 m 1
 5504 6000 l 1
 5504 0 l 1
 4256 0 l 1
 4256 6000 l 1
864 6000 m 1
 2096 6000 l 1
 2096 0 l 1
 864 0 l 1
 864 6000 l 1
EndSplineSet
EndChar

StartChar: I
Encoding: 73 73 20
GlifName: I_
Width: 3336
Flags: HMW
LayerCount: 2
Fore
SplineSet
144 24 m 1
 3216 24 l 1
 3216 0 l 1
 144 0 l 1
 144 24 l 1
144 6000 m 1
 3216 6000 l 1
 3216 5976 l 1
 144 5976 l 1
 144 6000 l 1
1024 6000 m 1
 2256 6000 l 1
 2256 0 l 1
 1024 0 l 1
 1024 6000 l 1
EndSplineSet
EndChar

StartChar: J
Encoding: 74 74 21
GlifName: J_
Width: 4264
Flags: HMW
LayerCount: 2
Fore
SplineSet
1072 6000 m 1
 4144 6000 l 1
 4144 5976 l 1
 1072 5976 l 1
 1072 6000 l 1
2112 6000 m 1
 3344 6000 l 1
 3344 1360 l 1
 3024 600 2592 -240 1424 -240 c 0
 608 -240 96 240 96 840 c 0
 96 1296 432 1600 832 1600 c 0
 1192 1600 1520 1336 1520 888 c 0
 1520 488 1216 176 832 176 c 0
 552 176 328 288 256 368 c 1
 416 80 832 -216 1408 -216 c 0
 2016 -216 2112 400 2112 1520 c 2
 2112 6000 l 1
EndSplineSet
Substitution2: "'ss02' Style Set 2 lookup 4-1" J.alt
EndChar

StartChar: K
Encoding: 75 75 22
GlifName: K_
Width: 6136
Flags: HMW
LayerCount: 2
Fore
SplineSet
144 24 m 1
 2816 24 l 1
 2816 0 l 1
 144 0 l 1
 144 24 l 1
144 6000 m 1
 2896 6000 l 1
 2896 5976 l 1
 144 5976 l 1
 144 6000 l 1
864 6000 m 1
 2096 6000 l 1
 2096 0 l 1
 864 0 l 1
 864 6000 l 1
1184 1736 m 1
 1152 1736 l 1
 4784 5984 l 1
 4816 5984 l 1
 1184 1736 l 1
3216 24 m 1
 6096 24 l 1
 6096 0 l 1
 3216 0 l 1
 3216 24 l 1
5744 5976 m 1
 3824 5976 l 1
 3824 6000 l 1
 5744 6000 l 1
 5744 5976 l 1
5472 0 m 1
 4032 0 l 1
 2296 3064 l 1
 3120 3992 l 1
 5472 0 l 1
EndSplineSet
EndChar

StartChar: L
Encoding: 76 76 23
GlifName: L_
Width: 4920
Flags: HMW
LayerCount: 2
Fore
SplineSet
864 6000 m 1
 2096 6000 l 1
 2096 0 l 1
 864 0 l 1
 864 6000 l 1
144 6000 m 1
 648 6000 2312 6000 2816 6000 c 1
 2816 5976 l 1
 144 5976 l 1
 144 6000 l 1
4760 0 m 1
 144 0 l 1
 144 24 l 1
 2920 24 l 2
 4096 24 4616 784 4736 1800 c 1
 4760 1800 l 1
 4760 0 l 1
EndSplineSet
EndChar

StartChar: M
Encoding: 77 77 24
GlifName: M_
Width: 7056
Flags: HMW
LayerCount: 2
Fore
SplineSet
6944 6000 m 1
 6944 5976 l 1
 6384 5976 l 1
 6384 0 l 1
 5136 0 l 1
 5136 6000 l 1
 6944 6000 l 1
176 24 m 1
 1392 24 l 1
 1392 0 l 1
 176 0 l 1
 176 24 l 1
4496 24 m 1
 6944 24 l 1
 6944 0 l 1
 4496 0 l 1
 4496 24 l 1
3616 1704 m 1
 5136 6000 l 1
 5152 6000 l 1
 3024 -80 l 1
 2992 -80 l 1
 768 6000 l 1
 2016 6000 l 1
 3616 1704 l 1
752 5976 m 1
 144 5976 l 1
 144 6000 l 1
 784 6000 l 1
 784 0 l 1
 752 0 l 1
 752 5976 l 1
EndSplineSet
EndChar

StartChar: N
Encoding: 78 78 25
GlifName: N_
Width: 5976
Flags: HMW
LayerCount: 2
Fore
SplineSet
5000 6000 m 1
 5024 6000 l 1
 5024 -80 l 1
 4992 -80 l 1
 944 6000 l 1
 2416 6000 l 1
 5000 2032 l 1
 5000 6000 l 1
4080 6000 m 1
 5864 6000 l 1
 5864 5976 l 1
 4080 5976 l 1
 4080 6000 l 1
144 24 m 1
 1888 24 l 1
 1888 0 l 1
 144 0 l 1
 144 24 l 1
928 5976 m 1
 144 5976 l 1
 144 6000 l 1
 960 6000 l 1
 960 0 l 1
 928 0 l 1
 928 5976 l 1
EndSplineSet
EndChar

StartChar: O
Encoding: 79 79 26
GlifName: O_
Width: 6096
Flags: HMW
LayerCount: 2
Fore
SplineSet
3056 -80 m 0
 1352 -80 336 1256 336 3000 c 0
 336 4744 1432 6080 3056 6080 c 0
 4680 6080 5776 4744 5776 3000 c 0
 5776 1256 4760 -80 3056 -80 c 0
3056 6056 m 0
 2024 6056 1744 4656 1744 3000 c 0
 1744 1344 1944 -56 3056 -56 c 0
 4168 -56 4384 1344 4384 3000 c 0
 4384 4656 4088 6056 3056 6056 c 0
EndSplineSet
EndChar

StartChar: P
Encoding: 80 80 27
GlifName: P_
Width: 5376
Flags: HMW
LayerCount: 2
Fore
SplineSet
864 6000 m 1
 2096 6000 l 1
 2096 0 l 1
 864 0 l 1
 864 6000 l 1
144 24 m 1
 2816 24 l 1
 2816 0 l 1
 144 0 l 1
 144 24 l 1
2896 2712 m 2
 1744 2712 l 1
 1744 2728 l 1
 2736 2728 l 2
 3424 2728 3744 3608 3744 4320 c 0
 3744 5032 3424 5976 2736 5976 c 2
 144 5976 l 1
 144 6000 l 1
 2896 6000 l 2
 4424 6000 5104 5360 5104 4320 c 0
 5104 3280 4424 2712 2896 2712 c 2
EndSplineSet
EndChar

StartChar: Q
Encoding: 81 81 28
GlifName: Q_
Width: 6096
Flags: HMW
LayerCount: 2
Fore
SplineSet
3056 -80 m 0
 1352 -80 336 1256 336 3000 c 0
 336 4744 1432 6080 3056 6080 c 0
 4680 6080 5776 4744 5776 3000 c 0
 5776 1256 4760 -80 3056 -80 c 0
3056 6056 m 0
 2024 6056 1744 4656 1744 3000 c 0
 1744 1344 1944 -56 3056 -56 c 0
 4168 -56 4384 1344 4384 3000 c 0
 4384 4656 4088 6056 3056 6056 c 0
4656 -1976 m 1
 4656 -2000 l 1
 2672 -2000 2336 -1552 2336 32 c 1
 2808 -112 3288 -112 3744 32 c 1
 3744 -1424 3784 -1976 4656 -1976 c 1
EndSplineSet
EndChar

StartChar: R
Encoding: 82 82 29
GlifName: R_
Width: 5936
Flags: HMW
LayerCount: 2
Fore
SplineSet
2944 3072 m 2
 1584 3072 l 1
 1584 3088 l 1
 2736 3088 l 2
 3504 3088 3904 3568 3904 4520 c 0
 3904 5472 3504 5976 2736 5976 c 2
 144 5976 l 1
 144 6000 l 1
 2944 6000 l 2
 4272 6000 5184 5560 5184 4520 c 0
 5184 3480 4352 3072 2944 3072 c 2
144 24 m 1
 2976 24 l 1
 2976 0 l 1
 144 0 l 1
 144 24 l 1
944 6000 m 1
 2176 6000 l 1
 2176 0 l 1
 944 0 l 1
 944 6000 l 1
5856 104 m 1
 5728 32 5376 -64 4896 -64 c 0
 2712 -64 4704 3072 2736 3072 c 2
 1584 3072 l 1
 1584 3088 l 1
 3376 3088 l 2
 6000 3088 4416 16 5400 16 c 0
 5568 16 5744 64 5856 120 c 1
 5856 104 l 1
EndSplineSet
Substitution2: "'ss01' Style Set 1 lookup 2-1" R.alt
EndChar

StartChar: S
Encoding: 83 83 30
GlifName: S_
Width: 4776
Flags: HMW
LayerCount: 2
Fore
SplineSet
4144 4280 m 1
 4112 4280 l 1
 3792 5384 3168 6048 2240 6048 c 0
 1592 6048 1264 5624 1264 5072 c 0
 1264 3712 4464 4040 4464 1720 c 0
 4464 600 3592 -120 2464 -120 c 0
 1216 -120 648 840 336 1800 c 1
 368 1800 l 1
 672 856 1248 -96 2432 -96 c 0
 3200 -96 3664 408 3664 1120 c 0
 3664 2640 416 2160 416 4480 c 0
 416 5480 1264 6080 2192 6080 c 0
 3176 6080 3824 5408 4144 4280 c 1
4112 6080 m 1
 4144 6080 l 1
 4144 4280 l 1
 3952 4808 3744 5264 3392 5616 c 1
 4112 6080 l 1
368 -80 m 1
 336 -80 l 1
 336 1800 l 1
 576 1168 816 744 1120 432 c 1
 368 -80 l 1
EndSplineSet
EndChar

StartChar: T
Encoding: 84 84 31
GlifName: T_
Width: 5416
Flags: HMW
LayerCount: 2
Fore
SplineSet
1216 24 m 1
 4224 24 l 1
 4224 0 l 1
 1216 0 l 1
 1216 24 l 1
2096 6000 m 1
 3344 6000 l 1
 3344 0 l 1
 2096 0 l 1
 2096 6000 l 1
3856 5976 m 2
 1584 5976 l 2
 728 5976 280 5096 160 4080 c 1
 144 4080 l 1
 144 6000 l 1
 5296 6000 l 1
 5296 4080 l 1
 5280 4080 l 1
 5160 5096 4712 5976 3856 5976 c 2
EndSplineSet
EndChar

StartChar: U
Encoding: 85 85 32
GlifName: U_
Width: 5776
Flags: HMW
LayerCount: 2
Fore
SplineSet
4096 6000 m 1
 5664 6000 l 1
 5664 5976 l 1
 4096 5976 l 1
 4096 6000 l 1
144 6000 m 1
 2896 6000 l 1
 2896 5976 l 1
 144 5976 l 1
 144 6000 l 1
4848 6000 m 1
 4864 6000 l 1
 4864 1840 l 2
 4864 520 4328 -120 3024 -120 c 0
 1520 -120 864 456 864 1840 c 2
 864 6000 l 1
 2096 6000 l 1
 2096 1920 l 2
 2096 864 2288 -48 3320 -48 c 0
 4264 -48 4848 536 4848 1840 c 2
 4848 6000 l 1
EndSplineSet
EndChar

StartChar: V
Encoding: 86 86 33
GlifName: V_
Width: 6176
Flags: HMW
LayerCount: 2
Fore
SplineSet
6096 5976 m 1
 4336 5976 l 1
 4336 6000 l 1
 6096 6000 l 1
 6096 5976 l 1
2976 5976 m 1
 96 5976 l 1
 96 6000 l 1
 2976 6000 l 1
 2976 5976 l 1
3648 1240 m 1
 5352 6000 l 1
 5376 6000 l 1
 3184 -120 l 1
 2784 -120 l 1
 656 6000 l 1
 2096 6000 l 1
 3648 1240 l 1
EndSplineSet
EndChar

StartChar: W
Encoding: 87 87 34
GlifName: W_
Width: 8816
Flags: HMW
LayerCount: 2
Fore
SplineSet
4768 3800 m 1
 3280 -80 l 1
 2944 -80 l 1
 736 6000 l 1
 2144 6000 l 1
 3808 1368 l 1
 4792 3952 l 1
 4768 3800 l 1
5232 3728 m 1
 5232 3808 l 1
 6048 6000 l 1
 6080 6000 l 1
 5232 3728 l 1
8736 5976 m 1
 7136 5976 l 1
 7136 6000 l 1
 8736 6000 l 1
 8736 5976 l 1
4584 6000 m 1
 6240 1368 l 1
 7984 6000 l 1
 8008 6000 l 1
 5728 -80 l 1
 5504 -80 l 1
 3296 6000 l 1
 4584 6000 l 1
6784 5976 m 1
 96 5976 l 1
 96 6000 l 1
 6784 6000 l 1
 6784 5976 l 1
EndSplineSet
EndChar

StartChar: X
Encoding: 88 88 35
GlifName: X_
Width: 6336
Flags: HMW
LayerCount: 2
Fore
SplineSet
3184 3016 m 1
 3152 3016 l 1
 5032 5984 l 1
 5064 5984 l 1
 3184 3016 l 1
1008 0 m 1
 976 0 l 1
 3184 3336 l 1
 3216 3336 l 1
 1008 0 l 1
3536 24 m 1
 6256 24 l 1
 6256 0 l 1
 3536 0 l 1
 3536 24 l 1
96 24 m 1
 2016 24 l 1
 2016 0 l 1
 96 0 l 1
 96 24 l 1
3104 5976 m 1
 384 5976 l 1
 384 6000 l 1
 3104 6000 l 1
 3104 5976 l 1
5824 5976 m 1
 4064 5976 l 1
 4064 6000 l 1
 5824 6000 l 1
 5824 5976 l 1
5744 0 m 1
 4304 0 l 1
 864 6000 l 1
 2272 6000 l 1
 5744 0 l 1
EndSplineSet
EndChar

StartChar: Y
Encoding: 89 89 36
GlifName: Y_
Width: 5896
Flags: HMW
LayerCount: 2
Fore
SplineSet
5824 5976 m 1
 4144 5976 l 1
 4144 6000 l 1
 5824 6000 l 1
 5824 5976 l 1
2896 5976 m 1
 96 5976 l 1
 96 6000 l 1
 2896 6000 l 1
 2896 5976 l 1
1696 24 m 1
 4464 24 l 1
 4464 0 l 1
 1696 0 l 1
 1696 24 l 1
3648 3088 m 1
 5072 5984 l 1
 5104 5984 l 1
 3664 3064 l 1
 3664 0 l 1
 2416 0 l 1
 2416 2880 l 1
 624 6000 l 1
 2064 6000 l 1
 3648 3088 l 1
EndSplineSet
EndChar

StartChar: Z
Encoding: 90 90 37
GlifName: Z_
Width: 4936
Flags: HMW
LayerCount: 2
Fore
SplineSet
256 6000 m 1
 4576 6000 l 1
 4576 5976 l 1
 1504 24 l 1
 2976 24 l 2
 4072 24 4480 624 4640 1640 c 1
 4656 1640 l 1
 4656 0 l 1
 96 0 l 1
 96 24 l 1
 3184 5976 l 1
 1936 5976 l 2
 840 5976 448 5376 288 4520 c 1
 256 4520 l 1
 256 6000 l 1
EndSplineSet
EndChar

StartChar: a
Encoding: 97 97 38
GlifName: a
Width: 4608
VWidth: 9240
Flags: HMW
LayerCount: 2
Fore
SplineSet
4608 504 m 1
 4424 104 4008 -80 3544 -80 c 0
 3048 -80 2608 72 2608 624 c 2
 2608 2440 l 2
 2608 3056 2456 3696 1856 3696 c 0
 1400 3696 1008 3512 848 3360 c 1
 1408 3600 1848 3280 1848 2904 c 0
 1848 2544 1496 2328 1176 2328 c 0
 816 2328 560 2560 560 2888 c 0
 560 3400 1256 3744 2064 3744 c 0
 3384 3744 3728 3168 3728 2440 c 2
 3728 352 l 2
 3728 176 3824 56 4016 56 c 0
 4144 56 4432 168 4592 504 c 1
 4608 504 l 1
2032 2016 m 2
 3024 2016 l 1
 3024 2000 l 1
 2312 2000 l 2
 1824 2000 1496 1536 1496 1000 c 0
 1496 504 1672 232 1952 232 c 0
 2280 232 2608 520 2608 1448 c 1
 2632 1448 l 1
 2632 456 2248 -80 1360 -80 c 0
 728 -80 280 312 280 904 c 0
 280 1576 856 2016 2032 2016 c 2
EndSplineSet
EndChar

StartChar: b
Encoding: 98 98 39
GlifName: b
Width: 4944
VWidth: 9240
Flags: HMW
LayerCount: 2
Fore
SplineSet
1744 1840 m 0
 1744 3056 2192 3752 3008 3752 c 0
 3880 3752 4704 3040 4704 1840 c 0
 4704 640 3880 -80 3008 -80 c 0
 2192 -80 1744 624 1744 1840 c 0
1760 1840 m 0
 1760 608 2256 16 2768 16 c 0
 3240 16 3424 688 3424 1840 c 0
 3424 2992 3240 3648 2768 3648 c 0
 2256 3648 1760 3072 1760 1840 c 0
640 5976 m 1
 120 5976 l 1
 120 6000 l 1
 1760 6000 l 1
 1760 0 l 1
 120 0 l 1
 120 24 l 1
 640 24 l 1
 640 5976 l 1
EndSplineSet
EndChar

StartChar: c
Encoding: 99 99 40
GlifName: c
Width: 4088
VWidth: 9240
Flags: HMW
LayerCount: 2
Fore
SplineSet
3640 3024 m 1
 3504 3416 2968 3728 2408 3728 c 0
 1656 3728 1560 2592 1560 1840 c 0
 1560 928 1736 -16 2408 -16 c 0
 3080 -16 3552 464 3760 1144 c 1
 3784 1144 l 1
 3576 448 3112 -80 2224 -80 c 0
 1056 -80 240 560 240 1840 c 0
 240 2960 944 3760 2272 3760 c 0
 3128 3760 3776 3288 3776 2672 c 0
 3776 2264 3504 2032 3144 2032 c 0
 2824 2032 2488 2192 2488 2656 c 0
 2488 3056 2832 3264 3104 3264 c 0
 3368 3264 3552 3152 3640 3024 c 1
EndSplineSet
EndChar

StartChar: d
Encoding: 100 100 41
GlifName: d
Width: 4944
VWidth: 9240
Flags: HMW
LayerCount: 2
Fore
SplineSet
3208 1840 m 0
 3208 624 2752 -80 1936 -80 c 0
 1064 -80 240 640 240 1840 c 0
 240 3040 1064 3760 1936 3760 c 0
 2752 3760 3208 3056 3208 1840 c 0
3184 1840 m 0
 3184 3072 2688 3656 2176 3656 c 0
 1704 3656 1520 2992 1520 1840 c 0
 1520 688 1704 24 2176 24 c 0
 2688 24 3184 608 3184 1840 c 0
4832 24 m 1
 4832 0 l 1
 3184 0 l 1
 3184 5976 l 1
 2664 5976 l 1
 2664 6000 l 1
 4304 6000 l 1
 4304 24 l 1
 4832 24 l 1
EndSplineSet
EndChar

StartChar: e
Encoding: 101 101 42
GlifName: e
Width: 4160
VWidth: 9240
Flags: HMW
LayerCount: 2
Fore
SplineSet
776 2080 m 1
 776 2096 l 1
 2752 2096 l 1
 2752 2800 2688 3736 2176 3736 c 0
 1624 3736 1480 2832 1480 1920 c 0
 1480 888 1648 -16 2400 -16 c 0
 3168 -16 3720 472 3920 1144 c 1
 3944 1144 l 1
 3736 448 3176 -80 2208 -80 c 0
 1080 -80 240 600 240 1840 c 0
 240 3080 1048 3760 2176 3760 c 0
 3368 3760 3936 2952 3936 2080 c 1
 776 2080 l 1
EndSplineSet
EndChar

StartChar: f
Encoding: 102 102 43
GlifName: f
Width: 3080
VWidth: 9240
Flags: HMW
LayerCount: 2
Fore
SplineSet
80 24 m 1
 2768 24 l 1
 2768 0 l 1
 80 0 l 1
 80 24 l 1
80 3680 m 1
 2928 3680 l 1
 2928 3656 l 1
 80 3656 l 1
 80 3680 l 1
3728 5408 m 1
 3648 5664 3360 6056 2704 6056 c 0
 2064 6056 1840 5336 1840 4320 c 2
 1840 0 l 1
 768 0 l 1
 768 4096 l 2
 768 5224 1544 6080 2704 6080 c 0
 3392 6080 3808 5624 3808 5168 c 0
 3808 4760 3544 4512 3184 4512 c 0
 2864 4512 2544 4720 2544 5112 c 0
 2544 5496 2848 5728 3168 5728 c 0
 3424 5728 3608 5600 3728 5408 c 1
EndSplineSet
EndChar

StartChar: g
Encoding: 103 103 44
GlifName: g
Width: 4896
VWidth: 9240
Flags: HMW
LayerCount: 2
Fore
SplineSet
376 512 m 0
 376 1104 1272 1328 1960 1328 c 1
 1960 1312 l 1
 1616 1312 1080 1208 1080 912 c 0
 1080 672 1456 672 1896 672 c 0
 2176 672 2360 680 2584 680 c 0
 3184 680 3920 432 3920 -656 c 0
 3920 -1624 3120 -2080 2040 -2080 c 0
 1096 -2080 120 -1800 120 -1080 c 0
 120 -392 1000 -248 1360 -248 c 2
 1400 -248 l 1
 1120 -400 1080 -720 1080 -896 c 0
 1080 -1520 1424 -2048 2112 -2048 c 0
 2864 -2048 3728 -1728 3728 -992 c 0
 3728 -480 3120 -272 2600 -272 c 0
 2392 -272 1944 -272 1768 -272 c 0
 1048 -272 376 -104 376 512 c 0
1480 2520 m 0
 1480 1848 1520 1328 1952 1328 c 0
 2264 1328 2424 1848 2424 2520 c 0
 2424 3192 2264 3736 1952 3736 c 0
 1640 3736 1480 3192 1480 2520 c 0
320 2520 m 0
 320 3400 1184 3760 1952 3760 c 0
 2720 3760 3584 3400 3584 2520 c 0
 3584 1640 2720 1312 1952 1312 c 0
 1184 1312 320 1640 320 2520 c 0
4784 3152 m 1
 4744 3408 4512 3696 4048 3696 c 0
 3640 3696 3168 3464 3008 2768 c 1
 2992 2776 l 1
 3152 3504 3648 3720 4048 3720 c 0
 4576 3720 4816 3360 4816 3056 c 0
 4816 2616 4552 2472 4312 2472 c 0
 4072 2472 3808 2632 3808 2976 c 0
 3808 3240 4016 3448 4304 3448 c 0
 4528 3448 4736 3312 4784 3152 c 1
EndSplineSet
EndChar

StartChar: h
Encoding: 104 104 45
GlifName: h
Width: 4840
VWidth: 9240
Flags: HMW
LayerCount: 2
Fore
SplineSet
3088 2544 m 2
 3088 3216 3024 3544 2688 3544 c 0
 1904 3544 1760 2512 1760 1784 c 1
 1744 1760 l 1
 1744 2552 1872 3760 3072 3760 c 0
 3968 3760 4208 3248 4208 2552 c 2
 4208 0 l 1
 3088 0 l 1
 3088 2544 l 2
2680 24 m 1
 4720 24 l 1
 4720 0 l 1
 2680 0 l 1
 2680 24 l 1
120 24 m 1
 2160 24 l 1
 2160 0 l 1
 120 0 l 1
 120 24 l 1
640 5976 m 1
 120 5976 l 1
 120 6000 l 1
 1760 6000 l 1
 1760 0 l 1
 640 0 l 1
 640 5976 l 1
EndSplineSet
EndChar

StartChar: i
Encoding: 105 105 46
GlifName: i
Width: 2416
VWidth: 9240
Flags: HMW
LayerCount: 2
Fore
SplineSet
160 24 m 1
 2320 24 l 1
 2320 0 l 1
 160 0 l 1
 160 24 l 1
480 5400 m 0
 480 5784 784 6080 1168 6080 c 0
 1552 6080 1840 5784 1840 5400 c 0
 1840 5016 1552 4720 1168 4720 c 0
 784 4720 480 5016 480 5400 c 0
688 3656 m 1
 160 3656 l 1
 160 3680 l 1
 1808 3680 l 1
 1808 0 l 1
 688 0 l 1
 688 3656 l 1
EndSplineSet
EndChar

StartChar: j
Encoding: 106 106 47
GlifName: j
Width: 2496
VWidth: 9240
Flags: HMW
LayerCount: 2
Fore
SplineSet
624 5400 m 0
 624 5784 912 6080 1296 6080 c 0
 1680 6080 1984 5784 1984 5400 c 0
 1984 5016 1680 4720 1296 4720 c 0
 912 4720 624 5016 624 5400 c 0
1920 3680 m 1
 1920 -96 l 2
 1920 -1144 1312 -2080 192 -2080 c 0
 -536 -2080 -1040 -1648 -1040 -1120 c 0
 -1040 -720 -736 -472 -384 -472 c 0
 -64 -472 272 -664 272 -1064 c 0
 272 -1448 0 -1672 -416 -1672 c 0
 -744 -1672 -952 -1448 -992 -1224 c 1
 -976 -1640 -520 -2040 88 -2040 c 0
 928 -2040 784 -840 784 176 c 2
 800 3656 l 1
 120 3656 l 1
 120 3680 l 1
 1920 3680 l 1
EndSplineSet
EndChar

StartChar: k
Encoding: 107 107 48
GlifName: k
Width: 5008
VWidth: 9240
Flags: HMW
LayerCount: 2
Fore
SplineSet
4672 0 m 1
 3280 0 l 1
 1696 2128 l 1
 3872 3680 l 1
 3912 3680 l 1
 2560 2696 l 1
 4672 0 l 1
2752 24 m 1
 4976 24 l 1
 4976 0 l 1
 2752 0 l 1
 2752 24 l 1
4576 3656 m 1
 2872 3656 l 1
 2872 3680 l 1
 4576 3680 l 1
 4576 3656 l 1
120 24 m 1
 2368 24 l 1
 2368 0 l 1
 120 0 l 1
 120 24 l 1
800 5976 m 1
 120 5976 l 1
 120 6000 l 1
 1920 6000 l 1
 1920 0 l 1
 800 0 l 1
 800 5976 l 1
EndSplineSet
EndChar

StartChar: l
Encoding: 108 108 49
GlifName: l
Width: 2720
VWidth: 9240
Flags: HMW
LayerCount: 2
Fore
SplineSet
120 24 m 1
 2608 24 l 1
 2608 0 l 1
 120 0 l 1
 120 24 l 1
800 5976 m 1
 120 5976 l 1
 120 6000 l 1
 1920 6000 l 1
 1920 0 l 1
 800 0 l 1
 800 5976 l 1
EndSplineSet
EndChar

StartChar: m
Encoding: 109 109 50
GlifName: m
Width: 6960
VWidth: 9240
Flags: HMW
LayerCount: 2
Fore
SplineSet
4048 2552 m 2
 4048 0 l 1
 2928 0 l 1
 2928 2544 l 2
 2928 3216 2856 3552 2560 3552 c 0
 1928 3552 1760 2568 1760 1784 c 1
 1744 1760 l 1
 1744 2552 1848 3760 2968 3760 c 0
 3776 3760 4048 3248 4048 2552 c 2
120 24 m 1
 2144 24 l 1
 2144 0 l 1
 120 0 l 1
 120 24 l 1
2544 24 m 1
 4424 24 l 1
 4424 0 l 1
 2544 0 l 1
 2544 24 l 1
4816 24 m 1
 6848 24 l 1
 6848 0 l 1
 4816 0 l 1
 4816 24 l 1
640 3656 m 1
 120 3656 l 1
 120 3680 l 1
 1760 3680 l 1
 1760 0 l 1
 640 0 l 1
 640 3656 l 1
6320 2552 m 2
 6320 0 l 1
 5200 0 l 1
 5200 2544 l 2
 5200 3216 5144 3552 4848 3552 c 0
 4208 3552 4048 2568 4048 1784 c 1
 4024 1760 l 1
 4024 2552 4120 3760 5248 3760 c 0
 6056 3760 6320 3248 6320 2552 c 2
EndSplineSet
EndChar

StartChar: n
Encoding: 110 110 51
GlifName: n
Width: 4840
VWidth: 9240
Flags: HMW
LayerCount: 2
Fore
SplineSet
3088 2544 m 2
 3088 3216 3024 3544 2688 3544 c 0
 1904 3544 1760 2512 1760 1784 c 1
 1744 1760 l 1
 1744 2552 1872 3760 3072 3760 c 0
 3968 3760 4208 3248 4208 2552 c 2
 4208 0 l 1
 3088 0 l 1
 3088 2544 l 2
2680 24 m 1
 4720 24 l 1
 4720 0 l 1
 2680 0 l 1
 2680 24 l 1
120 24 m 1
 2160 24 l 1
 2160 0 l 1
 120 0 l 1
 120 24 l 1
640 3656 m 1
 120 3656 l 1
 120 3680 l 1
 1760 3680 l 1
 1760 0 l 1
 640 0 l 1
 640 3656 l 1
EndSplineSet
EndChar

StartChar: o
Encoding: 111 111 52
GlifName: o
Width: 4384
VWidth: 9240
Flags: HMW
LayerCount: 2
Fore
SplineSet
1440 1840 m 0
 1440 888 1600 -56 2192 -56 c 0
 2784 -56 2944 888 2944 1840 c 0
 2944 2792 2784 3736 2192 3736 c 0
 1600 3736 1440 2792 1440 1840 c 0
240 1840 m 0
 240 2880 984 3760 2192 3760 c 0
 3400 3760 4144 2880 4144 1840 c 0
 4144 800 3400 -80 2192 -80 c 0
 984 -80 240 800 240 1840 c 0
EndSplineSet
EndChar

StartChar: p
Encoding: 112 112 53
GlifName: p
Width: 4944
VWidth: 9240
Flags: HMW
LayerCount: 2
Fore
SplineSet
1744 1840 m 0
 1744 3056 2192 3752 3008 3752 c 0
 3880 3752 4704 3040 4704 1840 c 0
 4704 640 3880 -80 3008 -80 c 0
 2192 -80 1744 624 1744 1840 c 0
1760 1840 m 0
 1760 608 2256 16 2768 16 c 0
 3240 16 3424 688 3424 1840 c 0
 3424 2992 3240 3648 2768 3648 c 0
 2256 3648 1760 3072 1760 1840 c 0
120 -1976 m 1
 2288 -1976 l 1
 2288 -2000 l 1
 120 -2000 l 1
 120 -1976 l 1
640 3656 m 1
 120 3656 l 1
 120 3680 l 1
 1760 3680 l 1
 1760 -2000 l 1
 640 -2000 l 1
 640 3656 l 1
EndSplineSet
EndChar

StartChar: q
Encoding: 113 113 54
GlifName: q
Width: 4944
VWidth: 9240
Flags: HMW
LayerCount: 2
Fore
SplineSet
3208 1840 m 0
 3208 624 2752 -80 1936 -80 c 0
 1064 -80 240 640 240 1840 c 0
 240 3040 1064 3760 1936 3760 c 0
 2752 3760 3208 3056 3208 1840 c 0
3184 1840 m 0
 3184 3072 2688 3656 2176 3656 c 0
 1704 3656 1520 2992 1520 1840 c 0
 1520 688 1704 24 2176 24 c 0
 2688 24 3184 608 3184 1840 c 0
4832 -1976 m 1
 4832 -2000 l 1
 2664 -2000 l 1
 2664 -1976 l 1
 4832 -1976 l 1
4832 3680 m 1
 4832 3656 l 1
 4304 3656 l 1
 4304 -2000 l 1
 3184 -2000 l 1
 3184 3680 l 1
 4832 3680 l 1
EndSplineSet
EndChar

StartChar: r
Encoding: 114 114 55
GlifName: r
Width: 3736
VWidth: 9240
Flags: HMW
LayerCount: 2
Fore
SplineSet
3632 3152 m 1
 3520 3520 3144 3736 2800 3736 c 0
 1832 3736 1760 2680 1760 1784 c 1
 1744 1784 l 1
 1744 2760 1832 3760 2800 3760 c 0
 3248 3760 3696 3424 3696 2912 c 0
 3696 2544 3464 2224 3040 2224 c 0
 2656 2224 2368 2464 2368 2864 c 0
 2368 3520 3288 3784 3632 3152 c 1
120 24 m 1
 2288 24 l 1
 2288 0 l 1
 120 0 l 1
 120 24 l 1
640 3656 m 1
 120 3656 l 1
 120 3680 l 1
 1760 3680 l 1
 1760 0 l 1
 640 0 l 1
 640 3656 l 1
EndSplineSet
EndChar

StartChar: s
Encoding: 115 115 56
GlifName: s
Width: 3520
VWidth: 9240
Flags: HMW
LayerCount: 2
Fore
SplineSet
2880 2992 m 1
 2784 3152 2656 3304 2528 3416 c 1
 3024 3760 l 1
 3040 3760 l 1
 3040 2640 l 1
 3024 2640 l 1
 3024 2712 2912 2928 2880 2992 c 1
3040 2640 m 1
 3016 2640 l 1
 2856 3152 2384 3728 1616 3728 c 0
 1160 3728 880 3504 880 3200 c 0
 880 2328 3320 2680 3320 1176 c 0
 3320 344 2608 -80 1872 -80 c 0
 1080 -80 504 416 304 1160 c 1
 320 1160 l 1
 520 424 1112 -48 1856 -48 c 0
 2368 -48 2736 168 2736 576 c 0
 2736 1472 376 1032 376 2600 c 0
 376 3232 856 3752 1616 3752 c 0
 2400 3752 2880 3168 3040 2640 c 1
320 -80 m 1
 304 -80 l 1
 304 1160 l 1
 320 1160 l 1
 328 1016 440 816 472 752 c 1
 592 560 720 400 824 304 c 1
 320 -80 l 1
EndSplineSet
EndChar

StartChar: t
Encoding: 116 116 57
GlifName: t
Width: 2856
VWidth: 9240
Flags: HMW
LayerCount: 2
Fore
SplineSet
40 3680 m 1
 2600 3680 l 1
 2600 3656 l 1
 40 3656 l 1
 40 3680 l 1
2840 816 m 1
 2648 304 2200 -56 1552 -56 c 0
 776 -56 624 368 624 928 c 2
 624 4480 l 1
 984 4480 1464 4560 1744 4720 c 1
 1744 672 l 2
 1744 272 1832 112 2048 112 c 0
 2312 112 2648 376 2824 816 c 1
 2840 816 l 1
EndSplineSet
EndChar

StartChar: u
Encoding: 117 117 58
GlifName: u
Width: 4840
VWidth: 9240
Flags: HMW
LayerCount: 2
Fore
SplineSet
1760 3680 m 1
 1760 1136 l 2
 1760 464 1824 136 2160 136 c 0
 2944 136 3088 1168 3088 1896 c 1
 3104 1920 l 1
 3104 1128 2976 -80 1776 -80 c 0
 880 -80 640 432 640 1128 c 2
 640 3656 l 1
 120 3656 l 1
 120 3680 l 1
 1760 3680 l 1
4208 24 m 1
 4720 24 l 1
 4720 0 l 1
 3088 0 l 1
 3088 3656 l 1
 2560 3656 l 1
 2560 3680 l 1
 4208 3680 l 1
 4208 24 l 1
EndSplineSet
EndChar

StartChar: v
Encoding: 118 118 59
GlifName: v
Width: 4512
VWidth: 9240
Flags: HMW
LayerCount: 2
Fore
SplineSet
4496 3656 m 1
 3024 3656 l 1
 3024 3680 l 1
 4496 3680 l 1
 4496 3656 l 1
2312 3656 m 1
 -16 3656 l 1
 -16 3680 l 1
 2312 3680 l 1
 2312 3656 l 1
2688 960 m 1
 3800 3680 l 1
 3832 3680 l 1
 2304 -80 l 1
 2008 -80 l 1
 464 3680 l 1
 1704 3680 l 1
 2688 960 l 1
EndSplineSet
EndChar

StartChar: w
Encoding: 119 119 60
GlifName: w
Width: 6520
VWidth: 9240
Flags: HMW
LayerCount: 2
Fore
SplineSet
2352 3656 m 1
 -16 3656 l 1
 -16 3680 l 1
 2352 3680 l 1
 2352 3656 l 1
6504 3656 m 1
 4864 3656 l 1
 4864 3680 l 1
 6504 3680 l 1
 6504 3656 l 1
2416 1024 m 1
 3552 3760 l 1
 4104 3760 l 1
 4880 1200 l 1
 5712 3680 l 1
 5744 3680 l 1
 4480 -80 l 1
 4176 -80 l 1
 3136 2696 l 1
 2000 -80 l 1
 1688 -80 l 1
 464 3680 l 1
 1656 3680 l 1
 2416 1024 l 1
EndSplineSet
EndChar

StartChar: x
Encoding: 120 120 61
GlifName: x
Width: 4512
VWidth: 9240
Flags: HMW
LayerCount: 2
Fore
SplineSet
2288 24 m 1
 4456 24 l 1
 4456 0 l 1
 2288 0 l 1
 2288 24 l 1
64 24 m 1
 1504 24 l 1
 1504 0 l 1
 64 0 l 1
 64 24 l 1
2352 3656 m 1
 96 3656 l 1
 96 3680 l 1
 2352 3680 l 1
 2352 3656 l 1
4352 3656 m 1
 3000 3656 l 1
 3000 3680 l 1
 4352 3680 l 1
 4352 3656 l 1
4136 0 m 1
 2816 0 l 1
 504 3680 l 1
 1784 3680 l 1
 4136 0 l 1
648 0 m 1
 616 0 l 1
 3696 3680 l 1
 3728 3680 l 1
 648 0 l 1
EndSplineSet
EndChar

StartChar: y
Encoding: 121 121 62
GlifName: y
Width: 4664
VWidth: 9240
Flags: HMW
LayerCount: 2
Fore
SplineSet
2512 3656 m 1
 -64 3656 l 1
 -64 3680 l 1
 2512 3680 l 1
 2512 3656 l 1
4768 3656 m 1
 3360 3656 l 1
 3360 3680 l 1
 4768 3680 l 1
 4768 3656 l 1
3040 1120 m 1
 2416 -208 l 1
 416 3680 l 1
 1736 3680 l 1
 3040 1120 l 1
1776 -1584 m 1
 4176 3680 l 1
 4200 3680 l 1
 1824 -1552 l 2
 1688 -1840 1496 -2064 1152 -2064 c 0
 832 -2064 528 -1848 528 -1464 c 0
 528 -1120 792 -832 1168 -832 c 0
 1520 -832 1824 -1136 1776 -1584 c 1
EndSplineSet
EndChar

StartChar: z
Encoding: 122 122 63
GlifName: z
Width: 3760
VWidth: 9240
Flags: HMW
LayerCount: 2
Fore
SplineSet
1608 3656 m 2
 856 3656 448 3112 328 2304 c 1
 304 2304 l 1
 304 3680 l 1
 3512 3680 l 1
 3512 3656 l 1
 1344 24 l 1
 2152 24 l 2
 3088 24 3496 480 3616 1472 c 1
 3640 1472 l 1
 3640 0 l 1
 80 0 l 1
 80 24 l 1
 2240 3656 l 1
 1608 3656 l 2
EndSplineSet
EndChar

StartChar: comma
Encoding: 44 44 65
GlifName: comma
Width: 2200
Flags: HMW
LayerCount: 2
Fore
SplineSet
320 632 m 0
 320 1016 672 1344 1096 1344 c 0
 1528 1344 1896 976 1896 272 c 0
 1896 -528 1264 -1216 304 -1216 c 1
 304 -1192 l 1
 1264 -1192 2072 -448 1824 680 c 1
 1792 304 1504 -80 1056 -80 c 0
 592 -80 320 248 320 632 c 0
EndSplineSet
EndChar

StartChar: exclam
Encoding: 33 33 67
GlifName: exclam
Width: 3040
Flags: HMW
LayerCount: 2
Fore
SplineSet
2224 5112 m 0
 2136 3944 1520 3064 1520 2064 c 1
 1504 2064 l 1
 1504 3064 888 3944 800 5112 c 0
 800 5168 800 5216 800 5264 c 0
 800 5712 1016 6064 1512 6064 c 0
 2008 6064 2232 5712 2232 5264 c 0
 2232 5216 2224 5168 2224 5112 c 0
EndSplineSet
Refer: 1 46 N 1 0 0 1 480 0 2
EndChar

StartChar: quotesingle
Encoding: 39 39 70
GlifName: quotesingle
Width: 2080
Flags: HMW
LayerCount: 2
Fore
SplineSet
1672 5288 m 24
 1584 4688 1048 4504 1048 3624 c 1
 1032 3624 l 1
 1032 4504 496 4688 408 5288 c 24
 400 5344 400 5384 400 5432 c 0
 400 5824 688 6080 1040 6080 c 0
 1392 6080 1680 5824 1680 5432 c 0
 1680 5384 1680 5344 1672 5288 c 24
EndSplineSet
EndChar

StartChar: question
Encoding: 63 63 75
GlifName: question
Width: 4680
Flags: HMW
LayerCount: 2
Fore
SplineSet
2008 2864 m 1
 2744 3072 2992 3736 2992 4480 c 0
 2992 5232 2904 6032 2112 6032 c 0
 1272 6032 600 5344 544 4864 c 1
 592 4992 816 5200 1136 5200 c 0
 1488 5200 1792 4984 1792 4600 c 0
 1792 4184 1496 3952 1136 3952 c 0
 736 3952 480 4216 480 4648 c 0
 480 5344 1232 6080 2288 6080 c 0
 3496 6080 4280 5440 4280 4480 c 0
 4280 3560 3352 2920 2024 2848 c 1
 2024 1952 l 1
 2008 1952 l 1
 2008 2864 l 1
EndSplineSet
Refer: 1 46 N 1 0 0 1 1112 0 2
EndChar

StartChar: parenleft
Encoding: 40 40 76
GlifName: parenleft
Width: 2976
Flags: HMW
LayerCount: 2
Fore
SplineSet
2832 -1344 m 1
 2824 -1360 l 1
 1520 -800 520 736 520 2600 c 0
 520 4464 1520 5840 2824 6400 c 1
 2832 6384 l 1
 2040 5864 1760 4136 1760 2600 c 0
 1760 1064 2040 -824 2832 -1344 c 1
EndSplineSet
EndChar

StartChar: at
Encoding: 64 64 79
GlifName: at
Width: 8080
VWidth: 9240
Flags: HMW
LayerCount: 2
Fore
SplineSet
4640 2856 m 0
 4640 1640 4072 560 3152 560 c 0
 2480 560 1952 1008 1952 1840 c 0
 1952 3040 2824 4232 3784 4232 c 0
 4512 4232 4640 3512 4640 2856 c 0
4608 2768 m 0
 4608 3104 4592 3944 4160 3944 c 0
 3728 3944 3240 2832 3240 1840 c 0
 3240 1304 3360 848 3632 848 c 0
 4112 848 4608 1776 4608 2768 c 0
4440 1680 m 2
 5016 4160 l 1
 6216 4160 l 1
 5624 1624 l 2
 5568 1376 5328 672 5824 672 c 0
 6784 672 7616 1832 7616 3208 c 0
 7616 4656 6696 6296 4680 6296 c 0
 2360 6296 464 4184 464 1688 c 0
 464 -808 1904 -1688 3352 -1688 c 0
 4648 -1688 5592 -1272 6256 -496 c 1
 6280 -512 l 1
 5608 -1296 4656 -1712 3352 -1712 c 0
 1888 -1712 440 -832 440 1688 c 0
 440 4192 2336 6320 4680 6320 c 0
 6704 6320 7640 4672 7640 3208 c 0
 7640 1888 6896 544 5408 544 c 0
 4456 544 4328 1184 4440 1680 c 2
EndSplineSet
EndChar

StartChar: dollar
Encoding: 36 36 80
GlifName: dollar
Width: 4760
Flags: HMW
LayerCount: 2
Fore
SplineSet
2576 6640 m 1
 2592 6640 l 1
 2592 -640 l 1
 2576 -640 l 1
 2576 6640 l 1
1944 6640 m 1
 1968 6640 l 1
 1968 -640 l 1
 1944 -640 l 1
 1944 6640 l 1
4160 4992 m 1
 4048 5600 3288 6048 2496 6048 c 0
 1808 6048 1280 5632 1280 5040 c 0
 1280 3600 4440 4040 4440 1760 c 0
 4440 640 3608 -120 2360 -120 c 0
 872 -120 224 640 224 1240 c 0
 224 1688 488 2016 920 2016 c 0
 1240 2016 1552 1760 1552 1328 c 0
 1552 928 1192 728 880 728 c 0
 592 728 352 904 256 1128 c 1
 320 600 960 -88 2320 -88 c 0
 3168 -88 3600 408 3600 1120 c 0
 3600 2720 440 2120 440 4440 c 0
 440 5440 1448 6080 2416 6080 c 0
 3360 6080 4200 5568 4200 4840 c 0
 4200 4392 3952 4104 3520 4104 c 0
 3200 4104 2888 4320 2888 4736 c 0
 2888 5120 3208 5352 3520 5352 c 0
 3800 5352 4048 5208 4160 4992 c 1
EndSplineSet
EndChar

StartChar: numbersign
Encoding: 35 35 81
GlifName: numbersign
Width: 5040
Flags: HMW
LayerCount: 2
Fore
SplineSet
240 2008 m 1
 4560 2008 l 1
 4560 1984 l 1
 240 1984 l 1
 240 2008 l 1
480 4136 m 1
 4800 4136 l 1
 4800 4112 l 1
 480 4112 l 1
 480 4136 l 1
3624 6032 m 1
 3648 6040 l 1
 2848 -40 l 1
 2824 -48 l 1
 3624 6032 l 1
2112 6040 m 1
 2136 6040 l 1
 1336 -40 l 1
 1312 -40 l 1
 2112 6040 l 1
EndSplineSet
EndChar

StartChar: slash
Encoding: 47 47 82
GlifName: slash
Width: 4160
Flags: HMW
LayerCount: 2
Fore
SplineSet
3816 6240 m 1
 3840 6240 l 1
 344 -1200 l 1
 320 -1200 l 1
 3816 6240 l 1
EndSplineSet
EndChar

StartChar: percent
Encoding: 37 37 83
GlifName: percent
Width: 8160
Flags: HMW
LayerCount: 2
Fore
SplineSet
5600 1680 m 0
 5600 592 5728 -56 6120 -56 c 0
 6512 -56 6640 592 6640 1680 c 0
 6640 2768 6512 3416 6120 3416 c 0
 5728 3416 5600 2768 5600 1680 c 0
4360 1680 m 0
 4360 2824 5216 3440 6120 3440 c 0
 7024 3440 7880 2824 7880 1680 c 0
 7880 536 6864 -80 6120 -80 c 0
 5216 -80 4360 536 4360 1680 c 0
6176 6000 m 1
 6200 6000 l 1
 1984 0 l 1
 1960 0 l 1
 6176 6000 l 1
1520 4320 m 0
 1520 3232 1648 2584 2040 2584 c 0
 2432 2584 2560 3232 2560 4320 c 0
 2560 5408 2432 6056 2040 6056 c 0
 1648 6056 1520 5408 1520 4320 c 0
280 4320 m 0
 280 5464 1136 6080 2040 6080 c 0
 2944 6080 3800 5464 3800 4320 c 0
 3800 3176 2784 2560 2040 2560 c 0
 1136 2560 280 3176 280 4320 c 0
EndSplineSet
EndChar

StartChar: hyphen
Encoding: 45 45 85
GlifName: hyphen
Width: 2880
Flags: HMW
LayerCount: 2
Fore
SplineSet
480 2208 m 1
 2400 2208 l 1
 2400 2192 l 1
 480 2192 l 1
 480 2208 l 1
EndSplineSet
EndChar

StartChar: plus
Encoding: 43 43 87
GlifName: plus
Width: 4240
Flags: HMW
LayerCount: 2
Fore
SplineSet
2112 880 m 1
 2112 4160 l 1
 2128 4160 l 1
 2128 880 l 1
 2112 880 l 1
480 2536 m 1
 3760 2536 l 1
 3760 2520 l 1
 480 2520 l 1
 480 2536 l 1
EndSplineSet
EndChar

StartChar: less
Encoding: 60 60 89
GlifName: less
Width: 4480
Flags: HMW
LayerCount: 2
Fore
SplineSet
480 3096 m 1
 480 3112 l 1
 4000 4800 l 1
 4000 4776 l 1
 480 3096 l 1
480 3088 m 1
 480 3104 l 1
 4000 1424 l 1
 4000 1400 l 1
 480 3088 l 1
EndSplineSet
EndChar

StartChar: backslash
Encoding: 92 92 91
GlifName: backslash
Width: 4160
Flags: HMW
LayerCount: 2
Fore
SplineSet
344 6240 m 1
 3840 -1200 l 1
 3816 -1200 l 1
 320 6240 l 1
 344 6240 l 1
EndSplineSet
EndChar

StartChar: bracketleft
Encoding: 91 91 92
GlifName: bracketleft
Width: 2840
Flags: HMW
LayerCount: 2
Fore
SplineSet
2600 -1200 m 1
 440 -1200 l 1
 440 -1176 l 1
 2600 -1176 l 1
 2600 -1200 l 1
2600 6216 m 1
 440 6216 l 1
 440 6240 l 1
 2600 6240 l 1
 2600 6216 l 1
1640 6240 m 1
 1640 -1200 l 1
 440 -1200 l 1
 440 6240 l 1
 1640 6240 l 1
EndSplineSet
EndChar

StartChar: braceleft
Encoding: 123 123 93
GlifName: braceleft
Width: 2656
VWidth: 9240
Flags: HMW
LayerCount: 2
Fore
SplineSet
2416 6240 m 1
 2416 6216 l 1
 1920 6216 1664 5680 1664 5176 c 0
 1664 4648 1936 4288 1936 3568 c 0
 1936 2904 1512 2680 440 2520 c 1
 440 2536 l 1
 680 2616 920 2840 920 3168 c 0
 920 3672 440 4032 440 5048 c 0
 440 5840 896 6240 2416 6240 c 1
2416 -1200 m 1
 896 -1200 440 -792 440 0 c 0
 440 1016 920 1376 920 1880 c 0
 920 2208 680 2432 440 2512 c 1
 440 2528 l 1
 1512 2368 1936 2144 1936 1480 c 0
 1936 760 1664 400 1664 -128 c 0
 1664 -632 1920 -1176 2416 -1176 c 1
 2416 -1200 l 1
EndSplineSet
EndChar

StartChar: bar
Encoding: 124 124 96
GlifName: bar
Width: 1840
VWidth: 9240
Flags: HMW
LayerCount: 2
Fore
SplineSet
912 6240 m 1
 928 6240 l 1
 928 -2000 l 1
 912 -2000 l 1
 912 6240 l 1
EndSplineSet
EndChar

StartChar: cent
Encoding: 162 162 98
GlifName: cent
Width: 4088
VWidth: 9240
Flags: HMW
LayerCount: 2
Fore
SplineSet
2272 4440 m 1
 2272 -680 l 1
 2240 -680 l 1
 2240 4440 l 1
 2272 4440 l 1
EndSplineSet
Refer: 40 99 N 1 0 0 1 0 0 2
EndChar

StartChar: sterling
Encoding: 163 163 99
GlifName: sterling
Width: 5248
VWidth: 9240
Flags: HMW
LayerCount: 2
Fore
SplineSet
5056 1736 m 1
 5056 176 4488 -240 3576 -240 c 0
 2480 -240 2000 240 1496 240 c 0
 1168 240 688 80 608 -160 c 1
 584 -160 l 1
 704 432 1392 1256 2176 1256 c 0
 2896 1256 3256 984 3784 984 c 0
 4360 984 5032 1080 5032 1736 c 1
 5056 1736 l 1
3720 3200 m 1
 3720 3184 l 1
 120 3184 l 1
 120 3200 l 1
 3720 3200 l 1
784 4400 m 0
 784 5520 1664 6080 3072 6080 c 0
 4368 6080 5056 5328 5056 4672 c 0
 5056 4224 4768 3912 4384 3912 c 0
 4024 3912 3648 4160 3648 4600 c 0
 3648 5000 3992 5280 4344 5280 c 0
 4712 5280 4896 5040 4976 4912 c 1
 4840 5472 4240 6016 3232 6016 c 0
 2400 6016 2152 5352 2152 4680 c 0
 2152 3888 2600 3520 2600 2840 c 0
 2600 1360 496 1360 600 -160 c 1
 576 -160 l 1
 424 952 1432 1576 1432 2088 c 0
 1432 3000 784 3480 784 4400 c 0
EndSplineSet
EndChar

StartChar: section
Encoding: 167 167 101
GlifName: section
Width: 3808
VWidth: 9240
Flags: HMW
LayerCount: 2
Fore
SplineSet
1080 5216 m 0
 1080 4328 3504 4328 3504 3104 c 0
 3504 2528 3048 2328 2656 2080 c 1
 2592 2096 l 1
 2800 2256 2960 2352 2960 2608 c 0
 2960 3496 536 3328 536 4784 c 0
 536 5616 1240 6080 2000 6080 c 0
 2664 6080 3472 5808 3472 4960 c 0
 3472 4592 3224 4304 2864 4304 c 0
 2544 4304 2320 4552 2320 4880 c 0
 2320 5176 2584 5424 2896 5424 c 0
 3088 5424 3240 5328 3312 5248 c 1
 3184 5736 2608 5984 2000 5984 c 0
 1536 5984 1080 5640 1080 5216 c 0
3488 1296 m 0
 3488 464 2832 -80 1832 -80 c 0
 1128 -80 240 200 240 1048 c 0
 240 1416 480 1704 840 1704 c 0
 1160 1704 1392 1464 1392 1136 c 0
 1392 840 1128 608 816 608 c 0
 576 608 432 736 384 816 c 1
 496 272 1176 16 1832 16 c 0
 2576 16 2888 464 2888 808 c 0
 2888 1696 384 1616 384 2800 c 0
 384 3416 856 3752 1168 3960 c 1
 1256 3960 l 1
 1144 3864 976 3672 976 3416 c 0
 976 2528 3488 2752 3488 1296 c 0
EndSplineSet
EndChar

StartChar: asciitilde
Encoding: 126 126 104
GlifName: asciitilde
Width: 5504
VWidth: 9240
Flags: HMW
LayerCount: 2
Fore
SplineSet
1624 3376 m 0
 1200 3376 824 3200 824 2744 c 1
 800 2744 l 1
 800 3664 1280 4200 1992 4200 c 0
 2872 4200 2992 3448 3800 3448 c 0
 4304 3448 4680 3624 4680 4080 c 1
 4704 4080 l 1
 4704 3160 4224 2624 3512 2624 c 0
 2496 2624 2488 3376 1624 3376 c 0
EndSplineSet
EndChar

StartChar: copyright
Encoding: 169 169 105
GlifName: copyright
Width: 6960
Flags: HMW
LayerCount: 2
Fore
SplineSet
400 3000 m 0
 400 4704 1776 6080 3480 6080 c 0
 5184 6080 6560 4704 6560 3000 c 0
 6560 1296 5184 -80 3480 -80 c 0
 1776 -80 400 1296 400 3000 c 0
424 3000 m 0
 424 1312 1792 -56 3480 -56 c 0
 5168 -56 6536 1312 6536 3000 c 0
 6536 4688 5168 6056 3480 6056 c 0
 1792 6056 424 4688 424 3000 c 0
EndSplineSet
Refer: 14 67 N 0.6 0 0 0.6 1616 1200 2
EndChar

StartChar: registered
Encoding: 174 174 106
GlifName: registered
Width: 6960
Flags: HMW
LayerCount: 2
Fore
SplineSet
400 3000 m 0
 400 4704 1776 6080 3480 6080 c 0
 5184 6080 6560 4704 6560 3000 c 0
 6560 1296 5184 -80 3480 -80 c 0
 1776 -80 400 1296 400 3000 c 0
424 3000 m 0
 424 1312 1792 -56 3480 -56 c 0
 5168 -56 6536 1312 6536 3000 c 0
 6536 4688 5168 6056 3480 6056 c 0
 1792 6056 424 4688 424 3000 c 0
EndSplineSet
Refer: 29 82 N 0.6 0 0 0.6 1784 1184 2
EndChar

StartChar: logicalnot
Encoding: 172 172 107
GlifName: logicalnot
Width: 3888
Flags: HMW
LayerCount: 2
Fore
SplineSet
3384 4896 m 1
 480 4896 l 1
 480 4920 l 1
 3408 4920 l 1
 3408 3304 l 1
 3384 3304 l 1
 3384 4896 l 1
EndSplineSet
EndChar

StartChar: guillemotleft
Encoding: 171 171 108
GlifName: guillemotleft
Width: 5800
Flags: HMW
LayerCount: 2
Fore
SplineSet
3928 3104 m 1
 5328 1168 l 1
 5320 1160 l 1
 2440 3040 l 1
 2440 3160 l 1
 5320 5040 l 1
 5328 5032 l 1
 3928 3104 l 1
1608 3104 m 1
 3088 1168 l 1
 3080 1160 l 1
 200 3040 l 1
 200 3160 l 1
 3080 5040 l 1
 3088 5032 l 1
 1608 3104 l 1
EndSplineSet
EndChar

StartChar: mu
Encoding: 181 181 111
GlifName: mu
Width: 4568
VWidth: 9240
Flags: HMW
LayerCount: 2
Fore
SplineSet
2024 -984 m 0
 2288 -984 2496 -1216 2496 -1520 c 0
 2496 -1832 2328 -2080 1744 -2080 c 0
 1184 -2080 704 -1688 704 -968 c 2
 704 2568 l 1
 720 2568 l 1
 720 -968 l 2
 720 -1672 1208 -2128 1912 -2040 c 1
 1912 -2040 l 1
 1720 -1968 1544 -1784 1544 -1488 c 0
 1544 -1224 1760 -984 2024 -984 c 0
EndSplineSet
Refer: 58 117 N 1 0 0 1 0 0 2
EndChar

StartChar: asciicircum
Encoding: 94 94 113
GlifName: asciicircum
Width: 4360
Flags: HMW
LayerCount: 2
Fore
SplineSet
2176 5784 m 1
 816 5032 l 1
 800 5040 l 1
 1920 6160 l 1
 2440 6160 l 1
 3560 5040 l 1
 3544 5032 l 1
 2176 5784 l 1
EndSplineSet
EndChar

StartChar: degree
Encoding: 176 176 115
GlifName: degree
Width: 2560
Flags: HMW
LayerCount: 2
Fore
SplineSet
320 5440 m 0
 320 5968 752 6400 1280 6400 c 0
 1808 6400 2240 5968 2240 5440 c 0
 2240 4912 1808 4480 1280 4480 c 0
 752 4480 320 4912 320 5440 c 0
496 5440 m 0
 496 4992 832 4656 1280 4656 c 0
 1728 4656 2064 4992 2064 5440 c 0
 2064 5888 1728 6224 1280 6224 c 0
 832 6224 496 5888 496 5440 c 0
EndSplineSet
EndChar

StartChar: onequarter
Encoding: 188 188 119
GlifName: onequarter
Width: 5368
Flags: HMW
LayerCount: 2
Fore
SplineSet
4184 5200 m 1
 4208 5200 l 1
 344 -800 l 1
 320 -800 l 1
 4184 5200 l 1
EndSplineSet
Refer: 6 52 N 0.6 0 0 0.6 2160 -824 2
Refer: 3 49 N 0.6 0 0 0.6 -64 2848 2
EndChar

StartChar: onehalf
Encoding: 189 189 120
GlifName: onehalf
Width: 5600
Flags: HMW
LayerCount: 2
Fore
SplineSet
4184 5200 m 1
 4208 5200 l 1
 344 -800 l 1
 320 -800 l 1
 4184 5200 l 1
EndSplineSet
Refer: 4 50 N 0.6 0 0 0.6 2728 -808 2
Refer: 3 49 N 0.6 0 0 0.6 -64 2848 2
EndChar

StartChar: threequarters
Encoding: 190 190 121
GlifName: threequarters
Width: 5848
Flags: HMW
LayerCount: 2
Fore
SplineSet
4664 5200 m 1
 4688 5200 l 1
 824 -800 l 1
 800 -800 l 1
 4664 5200 l 1
EndSplineSet
Refer: 5 51 N 0.6 0 0 0.6 40 2832 2
Refer: 6 52 N 0.6 0 0 0.6 2640 -824 2
EndChar

StartChar: grave
Encoding: 96 96 123
GlifName: grave
Width: 3280
Flags: HMW
LayerCount: 2
Fore
SplineSet
960 5600 m 2
 688 5552 440 5768 440 6040 c 0
 440 6312 736 6592 1040 6464 c 2
 2816 5808 l 1
 2800 5792 l 1
 960 5600 l 2
EndSplineSet
EndChar

StartChar: acute
Encoding: 180 180 124
GlifName: acute
Width: 3280
Flags: HMW
LayerCount: 2
Fore
SplineSet
2320 5600 m 2
 480 5792 l 1
 464 5808 l 1
 2240 6464 l 2
 2544 6592 2840 6312 2840 6040 c 0
 2840 5768 2592 5552 2320 5600 c 2
EndSplineSet
EndChar

StartChar: cedilla
Encoding: 184 184 128
GlifName: cedilla
Width: 4400
Flags: HMW
LayerCount: 2
Fore
SplineSet
2472 -1120 m 0
 2472 -696 2136 -632 1736 -632 c 1
 2456 328 l 1
 2488 328 l 1
 2008 -312 l 1
 2776 -336 3360 -512 3360 -960 c 0
 3360 -1360 2976 -1696 1768 -1696 c 1
 1768 -1664 l 1
 2240 -1664 2472 -1432 2472 -1120 c 0
EndSplineSet
EndChar

StartChar: ring
Encoding: 730 730 271
GlifName: ring
Width: 2560
VWidth: 0
Flags: HMW
LayerCount: 2
Fore
SplineSet
480 5440 m 0
 480 5848 792 6160 1280 6160 c 0
 1768 6160 2080 5848 2080 5440 c 0
 2080 5032 1768 4720 1280 4720 c 0
 792 4720 480 5032 480 5440 c 0
960 5440 m 0
 960 5024 1024 4744 1280 4744 c 0
 1536 4744 1600 5024 1600 5440 c 0
 1600 5856 1536 6136 1280 6136 c 0
 1024 6136 960 5856 960 5440 c 0
EndSplineSet
EndChar

StartChar: tilde
Encoding: 732 732 272
GlifName: tilde
Width: 3584
VWidth: 0
Flags: HMW
LayerCount: 2
Fore
SplineSet
944 5232 m 0
 640 5232 424 5056 424 4760 c 1
 400 4760 l 1
 400 5440 680 5936 1192 5936 c 0
 1832 5936 2112 5304 2640 5304 c 0
 2976 5304 3160 5480 3160 5776 c 1
 3184 5776 l 1
 3184 5016 3064 4600 2472 4600 c 0
 1856 4600 1528 5232 944 5232 c 0
EndSplineSet
EndChar

StartChar: AE
Encoding: 198 198 274
GlifName: A_E_
Width: 8360
Flags: HMW
LayerCount: 2
Fore
SplineSet
4200 6000 m 1
 4232 6000 l 1
 880 0 l 1
 848 0 l 1
 4200 6000 l 1
120 24 m 1
 1880 24 l 1
 1880 0 l 1
 120 0 l 1
 120 24 l 1
1968 1968 m 1
 4280 1968 l 1
 4280 1952 l 1
 1968 1952 l 1
 1968 1968 l 1
4200 6000 m 1
 5440 6000 l 1
 5440 0 l 1
 4200 0 l 1
 4200 6000 l 1
4200 6000 m 1
 8040 6000 l 1
 8040 4360 l 1
 8016 4360 l 1
 7896 5216 7296 5976 6400 5976 c 2
 4200 5976 l 1
 4200 6000 l 1
8120 0 m 1
 3480 0 l 1
 3480 24 l 1
 6320 24 l 2
 7376 24 7976 784 8096 1800 c 1
 8120 1800 l 1
 8120 0 l 1
6776 2104 m 1
 6656 2640 6176 3096 5720 3096 c 2
 5240 3096 l 1
 5240 3112 l 1
 5720 3112 l 2
 6176 3112 6656 3528 6776 4064 c 1
 6800 4064 l 1
 6800 2104 l 1
 6776 2104 l 1
EndSplineSet
EndChar

StartChar: ae
Encoding: 230 230 277
GlifName: ae
Width: 6664
VWidth: 9240
Flags: HMW
LayerCount: 2
Fore
SplineSet
560 2888 m 0
 560 3400 1256 3744 2064 3744 c 0
 3104 3744 3528 3168 3528 2440 c 1
 3488 1448 l 1
 3488 456 2688 -80 1760 -80 c 0
 888 -80 280 232 280 904 c 0
 280 1576 896 2048 2032 2048 c 2
 3264 2048 l 1
 3264 2032 l 1
 2312 2032 l 2
 1824 2032 1496 1536 1496 960 c 0
 1496 424 1672 -40 1992 -40 c 0
 2328 -40 2608 520 2608 1248 c 2
 2608 2440 l 2
 2608 2976 2496 3696 1856 3696 c 0
 1448 3696 992 3528 800 3328 c 1
 1368 3600 1848 3280 1848 2904 c 0
 1848 2544 1496 2328 1176 2328 c 0
 816 2328 560 2560 560 2888 c 0
5264 2064 m 1
 5256 2800 5216 3736 4704 3736 c 0
 4152 3736 4000 2832 4000 1920 c 0
 4000 1008 4160 -16 4912 -16 c 0
 5696 -16 6232 472 6440 1144 c 1
 6464 1144 l 1
 6256 448 5688 -80 4720 -80 c 0
 3712 -80 3000 600 3000 1840 c 0
 3000 3080 3696 3760 4704 3760 c 0
 5896 3760 6456 2912 6456 2040 c 1
 3568 2040 l 1
 3568 2064 l 1
 5264 2064 l 1
EndSplineSet
EndChar

StartChar: uni2010
Encoding: 8208 8208 279
GlifName: uni2010
Width: 2880
Flags: HMW
LayerCount: 2
Fore
SplineSet
480 2208 m 1
 2400 2208 l 1
 2400 2192 l 1
 480 2192 l 1
 480 2208 l 1
EndSplineSet
EndChar

StartChar: uni2011
Encoding: 8209 8209 280
GlifName: uni2011
Width: 2296
Flags: HMW
LayerCount: 2
Fore
SplineSet
480 2208 m 1
 1816 2208 l 1
 1816 2192 l 1
 480 2192 l 1
 480 2208 l 1
EndSplineSet
EndChar

StartChar: figuredash
Encoding: 8210 8210 282
GlifName: figuredash
Width: 3560
Flags: HMW
LayerCount: 2
Fore
SplineSet
480 2208 m 1
 3080 2208 l 1
 3080 2192 l 1
 480 2192 l 1
 480 2208 l 1
EndSplineSet
EndChar

StartChar: perthousand
Encoding: 8240 8240 285
GlifName: perthousand
Width: 12080
Flags: HMW
LayerCount: 2
Fore
SplineSet
9520 1680 m 0
 9520 592 9648 -56 10040 -56 c 0
 10432 -56 10560 592 10560 1680 c 0
 10560 2768 10432 3416 10040 3416 c 0
 9648 3416 9520 2768 9520 1680 c 0
8280 1680 m 0
 8280 2824 9136 3440 10040 3440 c 0
 10944 3440 11800 2824 11800 1680 c 0
 11800 536 10784 -80 10040 -80 c 0
 9136 -80 8280 536 8280 1680 c 0
5600 1680 m 0
 5600 592 5728 -56 6120 -56 c 0
 6512 -56 6640 592 6640 1680 c 0
 6640 2768 6512 3416 6120 3416 c 0
 5728 3416 5600 2768 5600 1680 c 0
4360 1680 m 0
 4360 2824 5216 3440 6120 3440 c 0
 7024 3440 7880 2824 7880 1680 c 0
 7880 536 6864 -80 6120 -80 c 0
 5216 -80 4360 536 4360 1680 c 0
6176 6000 m 1
 6200 6000 l 1
 1984 0 l 1
 1960 0 l 1
 6176 6000 l 1
1520 4320 m 0
 1520 3232 1648 2584 2040 2584 c 0
 2432 2584 2560 3232 2560 4320 c 0
 2560 5408 2432 6056 2040 6056 c 0
 1648 6056 1520 5408 1520 4320 c 0
280 4320 m 0
 280 5464 1136 6080 2040 6080 c 0
 2944 6080 3800 5464 3800 4320 c 0
 3800 3176 2784 2560 2040 2560 c 0
 1136 2560 280 3176 280 4320 c 0
EndSplineSet
EndChar

StartChar: uni2031
Encoding: 8241 8241 286
GlifName: uni2031
Width: 16040
Flags: HMW
LayerCount: 2
Fore
SplineSet
13480 1680 m 0
 13480 592 13608 -56 14000 -56 c 0
 14392 -56 14520 592 14520 1680 c 0
 14520 2768 14392 3416 14000 3416 c 0
 13608 3416 13480 2768 13480 1680 c 0
12240 1680 m 0
 12240 2824 13096 3440 14000 3440 c 0
 14904 3440 15760 2824 15760 1680 c 0
 15760 536 14744 -80 14000 -80 c 0
 13096 -80 12240 536 12240 1680 c 0
9520 1680 m 0
 9520 592 9648 -56 10040 -56 c 0
 10432 -56 10560 592 10560 1680 c 0
 10560 2768 10432 3416 10040 3416 c 0
 9648 3416 9520 2768 9520 1680 c 0
8280 1680 m 0
 8280 2824 9136 3440 10040 3440 c 0
 10944 3440 11800 2824 11800 1680 c 0
 11800 536 10784 -80 10040 -80 c 0
 9136 -80 8280 536 8280 1680 c 0
5600 1680 m 0
 5600 592 5728 -56 6120 -56 c 0
 6512 -56 6640 592 6640 1680 c 0
 6640 2768 6512 3416 6120 3416 c 0
 5728 3416 5600 2768 5600 1680 c 0
4360 1680 m 0
 4360 2824 5216 3440 6120 3440 c 0
 7024 3440 7880 2824 7880 1680 c 0
 7880 536 6864 -80 6120 -80 c 0
 5216 -80 4360 536 4360 1680 c 0
6176 6000 m 1
 6200 6000 l 1
 1984 0 l 1
 1960 0 l 1
 6176 6000 l 1
1520 4320 m 0
 1520 3232 1648 2584 2040 2584 c 0
 2432 2584 2560 3232 2560 4320 c 0
 2560 5408 2432 6056 2040 6056 c 0
 1648 6056 1520 5408 1520 4320 c 0
280 4320 m 0
 280 5464 1136 6080 2040 6080 c 0
 2944 6080 3800 5464 3800 4320 c 0
 3800 3176 2784 2560 2040 2560 c 0
 1136 2560 280 3176 280 4320 c 0
EndSplineSet
EndChar

StartChar: uniFB00
Encoding: 64256 64256 290
GlifName: uniF_B_00
Width: 5600
VWidth: 9240
Flags: HMW
LayerCount: 2
Fore
SplineSet
96 24 m 1
 5344 24 l 1
 5344 0 l 1
 96 0 l 1
 96 24 l 1
96 3680 m 1
 5504 3680 l 1
 5504 3656 l 1
 96 3656 l 1
 96 3680 l 1
4000 4904 m 1
 3936 5264 3448 5648 2912 5648 c 0
 2272 5648 1904 4936 1904 3920 c 2
 1904 0 l 1
 816 0 l 1
 816 3696 l 2
 816 4824 1680 5680 2880 5680 c 0
 3568 5680 4064 5184 4064 4728 c 0
 4064 4320 3800 4072 3440 4072 c 0
 3120 4072 2800 4280 2800 4672 c 0
 2800 5064 3064 5280 3400 5280 c 0
 3704 5280 3968 5008 4000 4904 c 1
6304 5328 m 1
 6248 5664 5904 6048 5296 6048 c 0
 4656 6048 4400 5336 4400 4320 c 2
 4400 0 l 1
 3320 0 l 1
 3320 4096 l 2
 3320 5224 4096 6080 5256 6080 c 0
 5944 6080 6360 5624 6360 5168 c 0
 6360 4760 6104 4512 5744 4512 c 0
 5424 4512 5096 4720 5096 5112 c 0
 5096 5504 5400 5728 5736 5728 c 0
 5992 5728 6224 5552 6304 5328 c 1
EndSplineSet
Ligature2: "'liga' Standard Ligatures lookup 0-1" f f
LCarets2: 1 0
EndChar

StartChar: uniFB01
Encoding: 64257 64257 291
GlifName: uniF_B_01
Width: 5016
VWidth: 9240
Flags: HMW
LayerCount: 2
Fore
SplineSet
816 4096 m 2
 816 5264 1640 6080 3040 6080 c 0
 3888 6080 4336 5624 4336 5128 c 0
 4336 4720 4088 4472 3728 4472 c 0
 3400 4472 3072 4680 3072 5064 c 0
 3072 5448 3376 5680 3712 5680 c 0
 4000 5680 4216 5520 4288 5264 c 1
 4208 5720 3776 6056 3040 6056 c 0
 2160 6056 1904 5336 1904 4320 c 2
 1904 0 l 1
 816 0 l 1
 816 4096 l 2
96 24 m 1
 4880 24 l 1
 4880 0 l 1
 96 0 l 1
 96 24 l 1
3200 3656 m 1
 96 3656 l 1
 96 3680 l 1
 4320 3680 l 1
 4320 0 l 1
 3200 0 l 1
 3200 3656 l 1
EndSplineSet
Ligature2: "'liga' Standard Ligatures lookup 0-1" f i
LCarets2: 1 0
EndChar

StartChar: uniFB02
Encoding: 64258 64258 292
GlifName: uniF_B_02
Width: 5376
VWidth: 9240
Flags: HMW
LayerCount: 2
Fore
SplineSet
96 24 m 1
 5296 24 l 1
 5296 0 l 1
 96 0 l 1
 96 24 l 1
96 3680 m 1
 3000 3680 l 1
 3000 3656 l 1
 96 3656 l 1
 96 3680 l 1
3536 5840 m 1
 4656 6160 l 1
 4656 0 l 1
 3536 0 l 1
 3536 5840 l 1
3856 5264 m 1
 3808 5632 3456 6048 2832 6048 c 0
 2112 6048 1904 5336 1904 4320 c 2
 1904 0 l 1
 816 0 l 1
 816 4096 l 2
 816 5224 1640 6080 2800 6080 c 0
 3488 6080 3904 5624 3904 5128 c 0
 3904 4720 3640 4472 3280 4472 c 0
 2960 4472 2640 4664 2640 5064 c 0
 2640 5464 2912 5680 3264 5680 c 0
 3680 5680 3848 5264 3856 5264 c 1
EndSplineSet
Ligature2: "'liga' Standard Ligatures lookup 0-1" f l
LCarets2: 1 0
EndChar

StartChar: uniFB03
Encoding: 64259 64259 293
GlifName: uniF_B_03
Width: 7440
VWidth: 9240
Flags: HMW
LayerCount: 2
Fore
SplineSet
3240 4096 m 2
 3240 5264 4056 6080 5456 6080 c 0
 6304 6080 6760 5624 6760 5128 c 0
 6760 4720 6504 4472 6144 4472 c 0
 5816 4472 5496 4680 5496 5064 c 0
 5496 5448 5784 5680 6120 5680 c 0
 6456 5680 6664 5488 6712 5264 c 1
 6632 5712 6200 6048 5456 6048 c 0
 4576 6048 4320 5336 4320 4320 c 2
 4320 0 l 1
 3240 0 l 1
 3240 4096 l 2
96 24 m 1
 7296 24 l 1
 7296 0 l 1
 96 0 l 1
 96 24 l 1
816 3696 m 2
 816 4816 1680 5680 2880 5680 c 0
 3568 5680 4064 5184 4064 4728 c 0
 4064 4320 3800 4072 3440 4072 c 0
 3120 4072 2800 4280 2800 4672 c 0
 2800 5064 3064 5280 3400 5280 c 0
 3704 5280 3928 5080 3960 4976 c 1
 3848 5296 3456 5648 2912 5648 c 0
 2272 5648 1904 4936 1904 3920 c 2
 1904 0 l 1
 816 0 l 1
 816 3696 l 2
5616 3656 m 1
 96 3656 l 1
 96 3680 l 1
 6736 3680 l 1
 6736 0 l 1
 5616 0 l 1
 5616 3656 l 1
EndSplineSet
Ligature2: "'liga' Standard Ligatures lookup 0-1" f f i
LCarets2: 2 0 0
EndChar

StartChar: uniFB04
Encoding: 64260 64260 294
GlifName: uniF_B_04
Width: 7920
VWidth: 9240
Flags: HMW
LayerCount: 2
Fore
SplineSet
96 24 m 1
 7800 24 l 1
 7800 0 l 1
 96 0 l 1
 96 24 l 1
96 3680 m 1
 5504 3680 l 1
 5504 3656 l 1
 96 3656 l 1
 96 3680 l 1
6040 5840 m 1
 7160 6160 l 1
 7160 0 l 1
 6040 0 l 1
 6040 5840 l 1
3968 4976 m 1
 3856 5296 3448 5648 2912 5648 c 0
 2272 5648 1904 4936 1904 3920 c 2
 1904 0 l 1
 816 0 l 1
 816 3696 l 2
 816 4816 1680 5680 2880 5680 c 0
 3568 5680 4064 5184 4064 4728 c 0
 4064 4320 3800 4072 3440 4072 c 0
 3120 4072 2800 4280 2800 4672 c 0
 2800 5064 3064 5280 3400 5280 c 0
 3664 5280 3936 5080 3968 4976 c 1
6352 5296 m 1
 6272 5712 5864 6056 5336 6056 c 0
 4616 6056 4400 5336 4400 4320 c 2
 4400 0 l 1
 3320 0 l 1
 3320 4096 l 2
 3320 5224 4136 6080 5296 6080 c 0
 5984 6080 6400 5624 6400 5128 c 0
 6400 4720 6144 4472 5784 4472 c 0
 5464 4472 5136 4664 5136 5064 c 0
 5136 5464 5408 5680 5760 5680 c 0
 6176 5680 6344 5296 6352 5296 c 1
EndSplineSet
Ligature2: "'liga' Standard Ligatures lookup 0-1" f f l
LCarets2: 2 0 0
EndChar

StartChar: ogonek
Encoding: 731 731 295
GlifName: ogonek
Width: 4400
Flags: HMW
LayerCount: 2
Fore
SplineSet
3200 -984 m 1
 3080 -1208 2896 -1568 2208 -1568 c 0
 1680 -1568 1216 -1360 1216 -880 c 0
 1216 -240 2000 168 2608 344 c 1
 2624 328 l 1
 2456 232 2288 -136 2288 -680 c 0
 2288 -1136 2472 -1384 2704 -1384 c 0
 2936 -1384 3048 -1216 3184 -976 c 1
 3200 -984 l 1
EndSplineSet
EndChar

StartChar: dotlessi
Encoding: 305 305 296
GlifName: dotlessi
Width: 2560
VWidth: 9240
Flags: HMW
LayerCount: 2
Fore
SplineSet
160 24 m 1
 2400 24 l 1
 2400 0 l 1
 160 0 l 1
 160 24 l 1
720 3656 m 1
 160 3656 l 1
 160 3680 l 1
 1840 3680 l 1
 1840 0 l 1
 720 0 l 1
 720 3656 l 1
EndSplineSet
EndChar

StartChar: uni0237
Encoding: 567 567 297
GlifName: uni0237
Width: 2608
VWidth: 9240
Flags: HMW
LayerCount: 2
Fore
SplineSet
2000 3680 m 1
 2000 -96 l 2
 2000 -1144 1384 -2080 264 -2080 c 0
 -464 -2080 -960 -1648 -960 -1120 c 0
 -960 -720 -656 -472 -304 -472 c 0
 16 -472 344 -664 344 -1064 c 0
 344 -1448 80 -1672 -336 -1672 c 0
 -664 -1672 -880 -1448 -920 -1224 c 1
 -904 -1640 -448 -2040 160 -2040 c 0
 1000 -2040 864 -840 864 176 c 2
 880 3656 l 1
 160 3656 l 1
 160 3680 l 1
 2000 3680 l 1
EndSplineSet
EndChar

StartChar: kgreenlandic
Encoding: 312 312 306
GlifName: kgreenlandic
Width: 5128
VWidth: 9240
Flags: HMW
LayerCount: 2
Fore
SplineSet
4744 0 m 1
 3360 0 l 1
 1776 2128 l 1
 3952 3680 l 1
 3984 3680 l 1
 2640 2696 l 1
 4744 0 l 1
2792 24 m 1
 5048 24 l 1
 5048 0 l 1
 2792 0 l 1
 2792 24 l 1
4656 3656 m 1
 2872 3656 l 1
 2872 3680 l 1
 4656 3680 l 1
 4656 3656 l 1
160 24 m 1
 2440 24 l 1
 2440 0 l 1
 160 0 l 1
 160 24 l 1
880 3656 m 1
 160 3656 l 1
 160 3680 l 1
 2000 3680 l 1
 2000 0 l 1
 880 0 l 1
 880 3656 l 1
EndSplineSet
EndChar

StartChar: breve
Encoding: 728 728 307
GlifName: breve
Width: 2400
VWidth: 9240
Flags: HMW
LayerCount: 2
Fore
SplineSet
264 6072 m 1
 264 5704 768 5560 1200 5560 c 0
 1632 5560 2136 5704 2136 6072 c 1
 2160 6072 l 1
 2160 5304 1880 4800 1200 4800 c 0
 520 4800 240 5304 240 6072 c 1
 264 6072 l 1
EndSplineSet
EndChar

StartChar: thorn
Encoding: 254 254 318
GlifName: thorn
Width: 4984
VWidth: 9240
Flags: HMW
LayerCount: 2
Fore
SplineSet
1776 1840 m 0
 1776 3056 2232 3752 3048 3752 c 0
 3920 3752 4744 3040 4744 1840 c 0
 4744 640 3920 -80 3048 -80 c 0
 2232 -80 1776 624 1776 1840 c 0
1800 1840 m 0
 1800 608 2288 16 2800 16 c 0
 3272 16 3464 688 3464 1840 c 0
 3464 2992 3280 3648 2808 3648 c 0
 2296 3648 1800 3072 1800 1840 c 0
120 -1976 m 1
 2360 -1976 l 1
 2360 -2000 l 1
 120 -2000 l 1
 120 -1976 l 1
680 5976 m 1
 120 5976 l 1
 120 6000 l 1
 1800 6000 l 1
 1800 -2000 l 1
 680 -2000 l 1
 680 5976 l 1
EndSplineSet
EndChar

StartChar: Thorn
Encoding: 222 222 319
GlifName: T_horn
Width: 5360
Flags: HMW
LayerCount: 2
Fore
SplineSet
840 6000 m 1
 2080 6000 l 1
 2080 0 l 1
 840 0 l 1
 840 6000 l 1
120 24 m 1
 2800 24 l 1
 2800 0 l 1
 120 0 l 1
 120 24 l 1
120 6000 m 1
 2800 6000 l 1
 2800 5976 l 1
 120 5976 l 1
 120 6000 l 1
2960 1440 m 2
 1920 1440 l 1
 1920 1464 l 1
 2680 1464 l 2
 3448 1464 3720 2408 3720 3120 c 0
 3720 3832 3448 4776 2680 4776 c 2
 1920 4776 l 1
 1920 4800 l 1
 2960 4800 l 2
 4408 4800 5080 4160 5080 3120 c 0
 5080 2080 4408 1440 2960 1440 c 2
EndSplineSet
EndChar

StartChar: Lslash
Encoding: 321 321 324
GlifName: L_slash
Width: 4920
Flags: HMW
LayerCount: 2
Fore
SplineSet
120 2880 m 1
 3280 4640 l 1
 3280 4608 l 1
 120 2848 l 1
 120 2880 l 1
EndSplineSet
Refer: 23 76 N 1 0 0 1 0 0 2
EndChar

StartChar: lslash
Encoding: 322 322 325
GlifName: lslash
Width: 2720
VWidth: 9240
Flags: HMW
LayerCount: 2
Fore
SplineSet
80 3040 m 1
 2760 4640 l 1
 2760 4616 l 1
 80 3016 l 1
 80 3040 l 1
EndSplineSet
Refer: 49 108 N 1 0 0 1 0 0 2
EndChar

StartChar: eth
Encoding: 240 240 329
GlifName: eth
Width: 4880
VWidth: 9240
Flags: HMW
LayerCount: 2
Fore
SplineSet
1040 5040 m 1
 4600 5040 l 1
 4600 5016 l 1
 1040 5016 l 1
 1040 5040 l 1
4480 2480 m 0
 4480 800 3616 -80 2328 -80 c 0
 1040 -80 240 800 240 2000 c 0
 240 3360 1224 3936 2112 3936 c 0
 2960 3936 3184 3216 3184 2240 c 1
 3160 2240 l 1
 3160 3296 2872 3848 2328 3848 c 0
 1816 3848 1560 3272 1560 2000 c 0
 1560 888 1672 -56 2304 -56 c 0
 2936 -56 3160 968 3160 2240 c 1
 3168 2616 l 1
 3168 4104 2272 6064 840 6064 c 1
 840 6080 l 1
 2904 6080 4480 4496 4480 2480 c 0
EndSplineSet
EndChar

StartChar: OE
Encoding: 338 338 330
GlifName: O_E_
Width: 7936
Flags: HMW
LayerCount: 2
Fore
SplineSet
3216 5976 m 1025,0,0
1720 3000 m 0,0,0
 1720 1424 2104 24 3216 24 c 1,0,0
 3056 0 l 1,0,0
 1432 0 320 1216 320 3000 c 0,0,0
 320 4784 1432 6000 3056 6000 c 1,0,0
 3216 5976 l 1,0,0
 2104 5976 1720 4576 1720 3000 c 0,0,0
EndSplineSet
Refer: 16 69 N 1 0 0 1 2920 0 2
EndChar

StartChar: germandbls
Encoding: 223 223 332
GlifName: germandbls
Width: 6168
VWidth: 9240
Flags: HMW
LayerCount: 2
Fore
SplineSet
3224 3232 m 1
 3224 3248 l 1
 4096 3248 4320 4056 4320 4568 c 0
 4320 5144 4096 6048 3304 6048 c 0
 2312 6048 2040 4984 2040 3848 c 2
 2040 0 l 1
 840 0 l 1
 840 3928 l 2
 840 5392 2040 6080 3344 6080 c 0
 4488 6080 5608 5512 5608 4648 c 0
 5608 3768 4832 3232 3224 3232 c 1
120 24 m 1
 2760 24 l 1
 2760 0 l 1
 120 0 l 1
 120 24 l 1
5848 1400 m 0
 5848 440 4936 -80 3968 -80 c 0
 3240 -80 2704 432 2704 1248 c 0
 2704 1696 3040 1928 3400 1928 c 0
 3720 1928 4032 1728 4032 1320 c 0
 4032 944 3688 720 3376 720 c 0
 3056 720 2792 928 2736 1200 c 1
 2752 432 3280 -32 3848 -32 c 0
 4440 -32 4560 768 4560 1280 c 0
 4560 2032 4416 3232 3224 3232 c 1
 3224 3248 l 1
 5152 3248 5848 2440 5848 1400 c 0
EndSplineSet
EndChar

StartChar: circumflex
Encoding: 710 710 335
GlifName: circumflex
Width: 3400
Flags: HMW
LayerCount: 2
Fore
SplineSet
1696 5600 m 1
 408 5072 l 1
 400 5080 l 1
 1360 6160 l 1
 2040 6160 l 1
 3000 5080 l 1
 2992 5072 l 1
 1696 5600 l 1
EndSplineSet
EndChar

StartChar: caron
Encoding: 711 711 336
GlifName: caron
Width: 3400
Flags: HMW
LayerCount: 2
Fore
SplineSet
1696 5720 m 1
 2992 6248 l 1
 3000 6240 l 1
 2040 5160 l 1
 1360 5160 l 1
 400 6240 l 1
 416 6248 l 1
 1696 5720 l 1
EndSplineSet
EndChar

StartChar: pi
Encoding: 960 960 337
GlifName: pi
Width: 5048
VWidth: 9240
Flags: HMW
LayerCount: 2
Fore
SplineSet
4768 824 m 1
 4584 264 4288 -80 3704 -80 c 0
 3168 -80 2768 152 2768 664 c 2
 2768 3360 l 1
 3888 3360 l 1
 3888 616 l 2
 3888 456 3968 304 4200 304 c 0
 4408 304 4592 432 4752 832 c 1
 4768 824 l 1
992 -80 m 0
 584 -80 320 144 320 464 c 0
 320 1208 1576 856 1576 2232 c 2
 1576 3600 l 1
 2024 3600 l 1
 2024 1944 l 2
 2024 680 1656 -80 992 -80 c 0
4608 3680 m 1
 4608 2560 l 1
 352 2560 l 1
 352 1960 l 1
 328 1960 l 1
 328 3680 l 1
 4608 3680 l 1
EndSplineSet
EndChar

StartChar: uni1E9E
Encoding: 7838 7838 338
GlifName: uni1E_9E_
Width: 7128
VWidth: 9240
Flags: HMW
LayerCount: 2
Fore
SplineSet
120 24 m 1
 2840 24 l 1
 2840 0 l 1
 120 0 l 1
 120 24 l 1
4912 3192 m 1
 4640 3240 3936 3320 3664 3320 c 1
 5632 5776 l 1
 5392 5888 4880 6056 4224 6056 c 0
 2672 6056 2120 4944 2120 3448 c 2
 2120 0 l 1
 840 0 l 1
 840 3528 l 2
 840 5232 2320 6080 4224 6080 c 0
 5448 6080 6288 5552 6568 5248 c 1
 4912 3192 l 1
2792 1168 m 1
 2864 528 3488 -16 4368 -16 c 0
 5216 -16 5504 728 5504 1600 c 0
 5504 2312 5216 3296 3664 3296 c 1
 3664 3320 l 1
 6112 3320 6808 2576 6808 1616 c 0
 6808 536 5816 -80 4608 -80 c 0
 3352 -80 2760 632 2760 1288 c 0
 2760 1736 3056 2032 3456 2032 c 0
 3816 2032 4096 1768 4096 1360 c 0
 4096 984 3768 720 3416 720 c 0
 3112 720 2872 960 2792 1168 c 1
EndSplineSet
EndChar

StartChar: uni203D
Encoding: 8253 8253 339
GlifName: uni203D_
Width: 5280
Flags: HMW
LayerCount: 2
Fore
SplineSet
3248 4152 m 0
 3160 3384 2584 2504 2584 1944 c 1
 2568 1944 l 1
 2568 2504 2152 3384 2064 4152 c 0
 2056 4208 2056 4256 2056 4304 c 0
 2056 4528 2200 4904 2656 4904 c 0
 3112 4904 3256 4528 3256 4304 c 0
 3256 4256 3256 4208 3248 4152 c 0
520 4448 m 0
 520 5184 1312 6080 2728 6080 c 0
 3936 6080 4960 5480 4960 4400 c 0
 4960 3360 3744 2680 2696 2680 c 1
 2696 2704 l 1
 3352 2720 3912 3616 3912 4480 c 0
 3912 5232 3416 6000 2544 6000 c 0
 1392 6000 632 5216 576 4608 c 1
 632 4800 856 5000 1176 5000 c 0
 1528 5000 1752 4680 1752 4400 c 0
 1752 3960 1416 3752 1136 3752 c 0
 816 3752 520 4000 520 4448 c 0
EndSplineSet
Refer: 1 46 N 1 0 0 1 1512 0 2
EndChar

StartChar: R.alt
Encoding: 65536 -1 340
GlifName: R_.alt
Width: 5816
Flags: HMW
LayerCount: 2
Fore
SplineSet
2944 3072 m 2
 1584 3072 l 1
 1584 3088 l 1
 2736 3088 l 2
 3504 3088 3904 3568 3904 4520 c 0
 3904 5472 3504 5976 2736 5976 c 2
 144 5976 l 1
 144 6000 l 1
 2944 6000 l 2
 4272 6000 5184 5560 5184 4520 c 0
 5184 3480 4352 3072 2944 3072 c 2
144 24 m 1
 2976 24 l 1
 2976 0 l 1
 144 0 l 1
 144 24 l 1
944 6000 m 1
 2176 6000 l 1
 2176 0 l 1
 944 0 l 1
 944 6000 l 1
5744 0 m 1
 5616 0 5152 0 4864 0 c 0
 2760 0 4672 3072 2704 3072 c 2
 1584 3072 l 1
 1584 3088 l 1
 3344 3088 l 2
 6048 3088 4432 24 5456 24 c 0
 5624 24 5632 24 5744 24 c 1
 5744 0 l 1
EndSplineSet
EndChar

StartChar: J.alt
Encoding: 65537 -1 341
GlifName: J_.alt
Width: 5064
Flags: HMW
LayerCount: 2
Fore
SplineSet
1904 6000 m 1
 4944 6000 l 1
 4944 5976 l 1
 1904 5976 l 1
 1904 6000 l 1
2912 6000 m 1
 4144 6000 l 1
 4144 1800 l 1
 3904 680 3232 -160 1824 -160 c 0
 768 -160 144 600 144 1320 c 0
 144 1936 552 2280 992 2280 c 0
 1392 2280 1728 2016 1728 1552 c 0
 1728 1152 1392 816 960 816 c 0
 560 816 264 1008 184 1248 c 1
 240 488 912 -120 1744 -120 c 0
 2592 -120 2912 640 2912 1760 c 2
 2912 6000 l 1
EndSplineSet
EndChar

StartChar: four.alt
Encoding: 65538 -1 342
GlifName: four.alt
Width: 5240
VWidth: 9240
Flags: HMW
LayerCount: 2
Fore
SplineSet
4720 24 m 1
 4720 0 l 1
 2120 0 l 1
 2120 24 l 1
 4720 24 l 1
4120 3984 m 1
 4120 -8 l 1
 2880 -8 l 1
 2880 3624 l 1
 3240 3624 3880 3824 4120 3984 c 1
160 1536 m 1
 4840 1536 l 1
 4840 1520 l 1
 120 1520 l 1
 1240 3120 2480 4800 2640 6000 c 1
 3984 6000 l 1
 3832 4640 1288 3088 160 1536 c 1
EndSplineSet
EndChar

StartChar: fj.lig
Encoding: 65539 -1 343
GlifName: fj.lig
Width: 4888
VWidth: 9240
Flags: HMW
LayerCount: 2
Fore
SplineSet
96 24 m 1
 2640 24 l 1
 2640 0 l 1
 96 0 l 1
 96 24 l 1
4280 -96 m 2
 4280 -1144 3664 -2080 2544 -2080 c 0
 1816 -2080 1320 -1688 1320 -1152 c 0
 1320 -744 1616 -472 1976 -472 c 0
 2296 -472 2624 -664 2624 -1064 c 0
 2624 -1464 2312 -1672 1960 -1672 c 0
 1656 -1672 1424 -1472 1360 -1248 c 1
 1408 -1696 1872 -2048 2464 -2048 c 0
 3304 -2048 3160 -856 3160 160 c 2
 3160 3656 l 1
 96 3656 l 1
 96 3680 l 1
 4280 3680 l 1
 4280 -96 l 2
4208 5376 m 1
 4096 5712 3744 6048 2992 6048 c 0
 2152 6048 1904 5336 1904 4320 c 2
 1904 0 l 1
 816 0 l 1
 816 4096 l 2
 816 5264 1592 6080 2992 6080 c 0
 3840 6080 4304 5624 4304 5128 c 0
 4304 4720 4040 4472 3680 4472 c 0
 3360 4472 3040 4664 3040 5064 c 0
 3040 5464 3352 5680 3672 5680 c 0
 3928 5680 4120 5528 4208 5376 c 1
EndSplineSet
LCarets2: 1 0
Ligature2: "'liga' Standard Ligatures lookup 0-1" f j
EndChar

StartChar: uni2116
Encoding: 8470 8470 344
GlifName: uni2116
Width: 9168
Flags: HW
LayerCount: 2
Fore
SplineSet
6920 4560 m 0
 6920 3648 7080 3064 7472 3064 c 0
 7864 3064 8024 3648 8024 4560 c 0
 8024 5472 7864 6056 7472 6056 c 0
 7080 6056 6920 5472 6920 4560 c 0
6000 4560 m 0
 6000 5560 6624 6080 7472 6080 c 0
 8320 6080 8944 5560 8944 4560 c 0
 8944 3560 8320 3040 7472 3040 c 0
 6624 3040 6000 3560 6000 4560 c 0
EndSplineSet
Refer: 85 45 N 1 0 0 1 6032 320 2
Refer: 25 78 N 1 0 0 1 0 0 2
EndChar

StartChar: Euro
Encoding: 8364 8364 345
Width: 5800
Flags: HW
LayerCount: 2
Fore
SplineSet
5336 5160 m 1
 5192 5536 4616 6032 3832 6032 c 0
 2680 6032 2320 4552 2320 3000 c 0
 2320 1288 2768 -16 3680 -16 c 0
 4480 -16 5120 656 5320 1424 c 1
 5344 1424 l 1
 5136 648 4512 -80 3464 -80 c 0
 2056 -80 880 1160 880 3000 c 0
 880 4680 1944 6080 3672 6080 c 0
 4768 6080 5440 5384 5440 4848 c 0
 5440 4400 5144 4152 4784 4152 c 0
 4464 4152 4128 4360 4128 4800 c 0
 4128 5200 4432 5440 4784 5440 c 0
 5056 5440 5272 5272 5336 5160 c 1
EndSplineSet
Refer: 88 61 N 1 0 0 1 -240 -560 2
EndChar
